<svg viewBox="298.52,538.17,2704.87,723.66" height="30" xmlns="http://www.w3.org/2000/svg">
  <g id="icon" fill="#fc3e04">
    <path d="m530.25 562.28c81.16-31.5 173.75-32.16 255.35-1.84 41.66 15.34 80.38 38.54 113.7 67.86-23.46 23.63-47.07 47.1-70.58 70.67-45.44-38.3-104.23-60.39-163.67-61.13-42.5-.87-85.18 8.86-123.08 28.13-32.16 16.28-60.89 39.29-83.83 67.1-23.19 28.01-40.47 60.92-50.28 95.95-17.78 62.81-11.03 132.21 18.92 190.25 17.34 33.93 42.17 63.98 72.21 87.42 30.74 24.07 66.92 41.18 105.09 49.47 47.41 10.42 97.72 7.4 143.49-8.8 29.49-10.4 57.08-26.15 81.04-46.25 23.55 23.54 47.15 47.05 70.61 70.68-27.74 24.36-59.18 44.52-92.97 59.42-82.83 36.83-179.63 40.56-265.12 10.51-71.54-24.82-134.66-72.91-177.81-135.1-28.74-41.13-48.74-88.33-58.21-137.6-8.78-45.45-8.78-92.58 0-138.03 14.71-77.28 55.84-149.07 114.67-201.23 32.38-28.88 69.98-51.9 110.47-67.48z"/>
    <path d="m861.49 731.71c23.51-23.56 47.07-47.08 70.61-70.61 24.79 28.17 45.2 60.18 60.17 94.6 35.87 81.78 39.58 176.98 10.54 261.4-15.29 44.76-39.55 86.39-70.8 121.88-23.53-23.53-47.09-47.05-70.61-70.61 23.07-27.61 40.51-59.92 50.61-94.46 13.61-46.31 14.08-96.4 1.38-142.96-9.85-36.33-27.8-70.36-51.9-99.24z"/>
    <path d="m573.95 684.03c54.78-22.19 118.15-22.18 172.92.04-.02 32.23-.02 64.46-.01 96.69-28.85 28.83-57.62 57.73-86.54 86.48-28.8-28.75-57.55-57.55-86.34-86.31-.05-32.3 0-64.6-.03-96.9z"/>
    <path d="m444.27 813.61c32.27-.2 64.55-.03 96.82-.09 28.87 28.81 57.7 57.64 86.54 86.48-28.87 28.87-57.73 57.73-86.63 86.57-32.2-.02-64.4.03-96.6-.03-22.14-54.82-22.09-118.06-.13-172.93z"/>
    <path d="m693.06 900c28.91-28.83 57.68-57.79 86.68-86.52 32.2.1 64.4.02 96.6.04 22.17 54.85 22.11 118.19-.02 173.04-32.2.02-64.4-.01-96.6.02-28.92-28.82-57.77-57.72-86.66-86.58z"/>
    <path d="m660.3 932.76c28.95 28.76 57.71 57.71 86.57 86.57-.02 32.2-.02 64.39 0 96.59-54.77 22.23-118.14 22.24-172.91.05.01-32.27-.02-64.53.01-96.8 28.78-28.8 57.55-57.6 86.33-86.41z"/>
  </g>
  <g id="text" fill="#272c2e">
    <path d="m2544.46 759.61c7.8-1.74 16.38-.7 23.19 3.65 6.97 4.45 12.48 11.51 14.21 19.7 3.14 12.82-2.74 27-14.05 33.79-7.95 4.99-18.27 5.66-26.96 2.35-12.3-4.84-20.81-17.88-19.81-31.14.27-13.28 10.6-25.35 23.42-28.35z"/>
    <path d="m2739.49 759.73c9.94-2.52 21.16.03 28.55 7.3 6.97 6.21 10.72 15.67 10.04 24.98-.3 8.99-5.07 17.48-12.15 22.92-10.4 8.31-26.47 8.25-36.87 0-7.44-5.65-12.33-14.58-12.5-23.98-1.12-14.16 9.3-27.81 22.93-31.22z"/>
    <path d="m1255.18 764.21c22.32-2.18 45.31.69 65.97 9.61 25.35 10.97 46.8 30.16 61.85 53.19 11.2 17.35 17.93 37.44 19.95 57.97 2.03 20.62.3 41.79-6.36 61.47-8.86 26.5-26.98 49.34-49.37 65.79-17.56 12.87-38.5 21.01-60.12 23.48-20.77 2.36-42.14.78-62.06-5.7-29.87-9.59-54.84-31.27-71.44-57.56-18.55-29.25-24.01-65.73-17.61-99.53 6.18-32.31 24.69-62.13 51.06-81.81 19.75-14.85 43.48-24.53 68.13-26.91m1.4 48.61c-26.87 2.91-50.87 20.77-63.24 44.51-8.54 16.39-11.02 35.37-9.47 53.63 1.26 15.5 6.47 30.82 15.88 43.28 8.52 11.26 19.84 20.38 32.53 26.54 19.61 9.33 42.83 10.66 63.47 4.05 29.33-9.96 52.09-37.13 56.73-67.77 3.21-20.56.6-42.47-9.74-60.74-8.12-14.3-20.14-26.49-34.55-34.47-15.6-8.64-34.04-11.2-51.61-9.03z"/>
    <path d="m2181.96 789.83c25.23-17.75 56.13-27.28 87-26.27 41.73.92 82.66 20.35 109.72 52.13-11.58 10.99-23.13 22-34.71 32.98-11.7-12.28-25.41-22.94-41.11-29.56-27.21-11.49-60.29-10.72-85.65 5.1-14.95 9.46-27.33 23.24-34.39 39.52-6.98 16.09-8.37 34.18-5.95 51.42 2.21 15.75 8.68 30.94 18.92 43.15 10.99 13.15 26.26 22.44 42.69 27.08 17.21 4.72 35.71 4.75 52.97.22 20.68-5.32 37.57-19.36 52.52-33.99 11.22 11.7 22.44 23.41 33.65 35.13-19.33 18.81-41.38 36.18-67.67 43.83-16.49 4.94-33.83 6.58-50.99 6.1-16.26-.46-32.53-3.18-47.8-8.83-28.35-10.38-52.55-31.32-67.45-57.52-9.59-16.88-14.9-35.98-16.55-55.26-1.69-19.78-.28-40.01 5.71-59.01 8.29-26.78 26-50.39 49.09-66.22z"/>
    <path d="m2625.25 766.78c16.07-.03 32.14-.02 48.21-.01.01 23.67 0 47.35.01 71.02 9.53.02 19.06-.01 28.6.01.01 13.89.01 27.78 0 41.68-9.54.01-19.07-.01-28.6.01-.01 50.24.01 100.49-.01 150.74-16.08-.01-32.15.04-48.22-.03.02-50.23 0-100.46.01-150.7-8.21-.05-16.42 0-24.62-.02-.01-13.9-.02-27.79 0-41.67 8.2-.03 16.4-.01 24.61-.01.02-23.68 0-47.35.01-71.02z"/>
    <path d="m1533.95 835.55c20.8-4.97 43.62-2.43 62.3 8.25 13.4 7.67 24.73 18.85 32.97 31.89 9.69 15.33 14.41 33.39 15.26 51.4.96 18.07-1.59 36.59-9.33 53.06-7.8 16.7-20.49 31.02-35.81 41.2-17.03 11.32-38.28 15.53-58.43 12.74-18.11-2.2-34.4-11.88-47.32-24.42-.01 30.28.01 60.57-.01 90.85-16.07.01-32.14 0-48.2.01-.03-87.56.02-175.12-.03-262.67 16.04-.18 32.08.06 48.12-.13.27 7.06.04 14.12.12 21.18 11.17-11.04 24.98-19.69 40.36-23.36m2.57 42.22c-9.39 1.12-18.46 4.92-25.71 11.01-10.06 8.18-16.64 20.26-18.51 33.06-2.95 18.88.87 40.09 14.94 53.91 13.25 14.01 34.7 18.22 52.83 12.62 10.07-3.15 18.77-9.88 25.11-18.23 10.85-14.12 13.2-33.16 10.01-50.29-2.85-15.3-12.64-29.25-26.36-36.71-9.8-5.32-21.35-6.69-32.31-5.37z"/>
    <path d="m1740.43 838.65c18.48-6.32 38.62-6.91 57.75-3.44 18.45 3.32 35.9 12.15 49.27 25.32 12.98 12.55 22.11 28.9 26.33 46.43 3.34 13.24 3.99 26.98 3.46 40.58-51.65.12-103.31.01-154.97.06 2.42 16.78 12.96 32.53 28.6 39.59 15.46 6.91 33.69 6.99 49.54 1.31 8.72-3.19 16.48-8.58 23.16-14.98 13.46 6.41 26.96 12.74 40.43 19.15-10.06 14.33-23.56 26.53-39.72 33.53-16.73 7.21-35.24 9.33-53.31 8.55-18.22-.8-36.53-5.7-51.82-15.86-17.07-11.36-30.68-28.12-37.59-47.49-6.84-19.26-7.53-40.43-3.61-60.39 6.39-32.75 30.96-61.35 62.48-72.36m-.28 48.49c-7.01 6.16-11.66 14.45-15.66 22.76 34.92.01 69.83.02 104.74-.01-4.95-16.76-19.69-29.57-36.47-33.68-17.94-4.36-38.2-1-52.61 10.93z"/>
    <path d="m2002.69 835.74c18.37-5.05 39.04-2.94 55.32 7.29 9.28 5.85 17.51 13.84 22.17 23.9 6.45 13.33 7.41 28.45 7.12 43.03 0 40.09.01 80.18 0 120.27-15.94.01-31.88 0-47.81 0-.04-24.05 0-48.11-.01-72.17-.1-17.39.37-34.88-1.98-52.15-1.35-9.96-6.26-20.18-15.48-25.01-12.65-6.47-29.17-4.1-39.68 5.39-9.03 7.96-14.08 19.59-16.01 31.29-1.3 10.09-1.35 20.28-1.48 30.44-.05 27.4-.01 54.8-.02 82.21-16.07.01-32.15 0-48.21 0-.01-64.14-.02-128.29 0-192.43 16.07-.01 32.14-.01 48.21.01 0 6.59-.02 13.18.01 19.78 11.26-9.28 23.56-18.02 37.85-21.85z"/>
    <path d="m2474.42 835.69c11.13-4.22 23.79-3.02 34.34 2.32-4.98 13.89-10.01 27.77-14.97 41.67-5.2-2.42-10.86-4.95-16.72-3.94-6.03.96-10.77 5.44-13.99 10.37-4.49 6.5-6.24 14.38-7.46 22.05-2.23 15.16-2.3 30.53-1.94 45.82-.05 25.43.09 50.86-.07 76.29-16.05-.08-32.09-.02-48.13-.03-.03-64.15-.05-128.3.01-192.45 13.88.02 27.76-.01 41.65.01 0 8.13.01 16.25-.01 24.38 5.49-11.73 14.82-22.16 27.29-26.49z"/>
    <path d="m2865.97 842.9c16.61-7.4 34.99-10.33 53.11-9.71 18.05.49 36.16 4.9 51.89 13.92 12.91 7.28 24.04 17.6 32.43 29.81-13.38 7.4-26.77 14.77-40.16 22.13-6.36-6.58-13.52-12.64-22-16.26-10.13-4.33-21.4-5.2-32.29-4.52-15.8.83-31.47 7.7-41.66 20-12.17 13.97-15.2 34.05-11.17 51.74 3.72 16.56 16.37 30.59 32.19 36.54 13.9 5.16 29.39 5.3 43.73 1.92 12.21-2.98 23.27-10.09 31.21-19.82 12.67 8.68 25.35 17.36 38 26.09-9.84 12.79-22.6 23.43-37.33 30.12-19.6 9.05-41.72 11.22-63.05 9.53-19.79-1.53-39.64-7.59-55.57-19.71-11.17-8.51-20.4-19.48-27.36-31.65-18.35-32.4-16.13-75.2 5.41-105.56 10.55-15.29 25.69-27.11 42.62-34.57z"/>
    <path d="m2527.55 837.8c16.06 0 32.12-.01 48.18.01v192.41c-16.06.02-32.12.01-48.18.01-.01-64.14-.01-128.29 0-192.43z"/>
    <path d="m2723.07 837.8c16.05 0 32.11-.01 48.17 0 .01 64.14.01 128.29 0 192.43-16.06.01-32.12 0-48.17 0-.01-64.14-.01-128.29 0-192.43z"/>
  </g>
</svg>
