<svg fill="none" height="39" viewBox="0 0 220 133" xmlns="http://www.w3.org/2000/svg"><g fill="#000"><path d="m175.623 60.2642v-10.8604h-40.17v46.653c0 2.1897 1.746 3.9612 3.895 3.9612h36.271v-10.8609h-21.092v-9.0183h21.092v-10.8605h-21.092v-9.0183h21.096z"/><path d="m138.261 111.33c-.123-.205-.329-.205-.453 0l-1.881 3.119c-.124.205-.124.545 0 .754l1.881 3.119c.124.205.33.205.453 0l1.882-3.119c.123-.205.123-.544 0-.754z"/><path d="m75.8845 111.74v6.172c0 3.37 2.6966 6.112 6.0108 6.112h19.7867v-5.547h-19.7867c-.3005 0-.5558-.26-.5558-.565v-6.172c0-.305.2553-.565.5558-.565h19.7867v-5.547h-19.7867c-3.3142 0-6.0108 2.742-6.0108 6.112z"/><path d="m127.042 105.628h-16.064c-3.314 0-6.011 2.742-6.011 6.112v6.172c0 3.37 2.697 6.112 6.011 6.112h16.064c3.314 0 6.011-2.742 6.011-6.112v-6.172c0-3.37-2.697-6.112-6.011-6.112zm.556 12.284c0 .305-.255.565-.556.565h-16.064c-.301 0-.556-.26-.556-.565v-6.172c0-.305.255-.565.556-.565h16.064c.301 0 .556.26.556.565z"/><path d="m196.459 105.628h-22.075v25.761h5.455v-7.365h16.62c3.314 0 6.011-2.742 6.011-6.112v-6.172c0-3.37-2.697-6.112-6.011-6.112zm.556 12.284c0 .305-.255.565-.556.565h-16.62v-7.302h16.62c.301 0 .556.26.556.565z"/><path d="m183.388 100.022h15.278c2.099 0 3.804-1.7336 3.804-3.8689v-46.7493h-19.078v50.6182z"/><path d="m150.55 30.8439-30.659-27.21817-.025.02512-3.985-3.65085-63.6981 64.8906-7.3611-15.491h5.8337l-18.8352-36.1443-18.403 36.1485h5.8338l-12.40453 25.3382 7.82233.0084-14.6689 30.8776 69.0503 18.396-13.5696-31.2496 20.3997-27.5614v34.834h19.0864v-13.2555h5.9322l8.864 13.2595h21.413l-11.013-16.4707 7.517-7.645v-26.498h-19.074l-13.6269 7.0505v-5.0367c0-1.1137-.8851-2.0138-1.9802-2.0138h-5.4304l29.9755-40.49438 35.44 32.33018 18.267-20.2514 23.322 20.243h7.893l-31.462-27.9299zm-55.5709 36.5797 13.6269-7.0505v14.3689h-13.6351z"/><path d="m165.087 105.628h-16.064c-3.314 0-6.011 2.742-6.011 6.112v6.172c0 3.37 2.697 6.112 6.011 6.112h16.064c3.315 0 6.011-2.742 6.011-6.112v-6.172c0-3.37-2.696-6.112-6.011-6.112zm.556 12.284c0 .305-.255.565-.556.565h-16.064c-.301 0-.556-.26-.556-.565v-6.172c0-.305.255-.565.556-.565h16.064c.301 0 .556.26.556.565z"/><path d="m215.949 53.9255v-.0293c0-1.3524-.976-1.9846-2.483-1.9846h-2.276v6.5858h1.416v-2.5581h.683l1.569 2.5581h1.478l-1.713-2.7967c.766-.2429 1.326-.7872 1.326-1.7752zm-1.392.0586c0 .6322-.387.9629-1.124.9629h-.827v-1.9259h.827c.713 0 1.124.2387 1.124.9337z"/><path d="m213.433 48.6292c-3.668 0-6.562 2.9768-6.562 6.6779 0 3.7597 2.927 6.6151 6.562 6.6151 3.669 0 6.567-2.8889 6.567-6.6444 0-3.7011-2.837-6.6486-6.567-6.6486zm0 12.2086c-3.013 0-5.381-2.2232-5.381-5.5307 0-3.2782 2.248-5.5935 5.381-5.5935s5.381 2.286 5.381 5.5642-2.334 5.56-5.381 5.56z"/></g></svg>