<?xml version="1.0"?>
<svg width="1780.2144" height="605.69" xmlns="http://www.w3.org/2000/svg">
<g style="fill:#FF9F59; stroke-width:1.85;">
 <path d="M 442.27395,432.22105 557.8675,316.6275 588.0225,216.11145 442.27395,361.86 Z" />
 <path d="M 30.155,100.51661 291.49895,361.86 v 70.36105 l 35.1796,-35.1796 40.2079,40.20605 v 70.36105 l 35.1796,-35.1796 73.07685,73.075 L 495.0452,495.0452 0,0 Z" />
 <path d="m 95.49089,316.6275 120.62056,120.62 -57.7977,57.7977 19.9023,50.45875 73.075,-73.075 40.2079,40.20605 -90.465,90.465 H 271.395 L 326.67855,547.81645 381.96395,603.1 H 452.325 L 65.33589,216.11145 Z" />
 <path d="m 366.88645,286.4725 v 70.36105 L 623.20395,100.51661 653.35895,0 Z" />
 <path d="M 853.18485,179.97114 V 36.50846 H 905.6342 V 0 H 762.42755 v 36.50846 h 52.7065 v 143.46268 z" />
 <path d="m 834.71445,394.1166 c 50.90645,0 88.95725,-34.96685 88.95725,-86.64475 0,-6.68405 -0.5143,-15.68245 -1.5429,-20.8236 h -87.616 v 36.76505 h 49.82235 c -5.91445,20.31115 -23.6541,33.67925 -46.7939,33.67925 -32.3935,0 -54.76185,-23.9094 -54.76185,-55.5333 0,-31.6239 22.36835,-55.5333 51.93505,-55.5333 18.76825,0 36.76505,9.76985 42.4205,25.19515 h 43.1938 c -5.3983,-32.9078 -42.6795,-62.2192 -85.6143,-62.2192 -51.93505,0 -91.01445,39.85085 -91.01445,92.55735 0,52.7065 39.0794,92.55735 91.01445,92.55735 z" />
 <path d="m 1025.1017,211.5734 h -30.8525 l -71.2176,179.9717 h 40.36515 l 11.5699,-30.081 h 69.16045 l 11.3127,30.081 h 41.3938 z m -37.2794,116.7239 21.8541,-57.0762 21.595,57.0762 z" />
 <path d="m 848.9354,423.1468 h -30.85245 l -71.2176,179.9717 h 40.36515 l 11.5699,-30.081 h 69.1604 l 11.31275,30.081 h 41.3919 z m -37.2812,116.72575 21.85405,-57.07805 21.5969,57.07805 z" />
 <path d="m 1123.5994,423.1468 -46.3592,115.69715 -37.2793,-115.69715 h -30.5954 L 972.0862,538.84395 925.2146,423.1468 h -40.6223 l 71.29715,179.9717 h 30.85245 l 37.5365,-115.6953 37.7937,115.6953 h 30.5953 l 70.7828,-179.9717 z" />
 <path d="m 1230.2186,423.14865 h -30.8525 l -71.2158,179.96985 h 40.3633 l 11.5699,-30.081 h 69.1605 l 11.3127,30.081 h 41.3937 z m -37.2794,116.7239 21.8541,-57.0762 21.5969,57.0762 z" />
 <path d="m 1317.7753,603.1185 h 38.0508 v -68.6461 h 19.5398 l 40.6223,68.6461 h 46.2778 l -47.3064,-74.5587 c 17.9968,-8.74125 28.7953,-26.4809 28.7953,-49.87785 0,-30.85245 -26.4809,-55.5333 -56.8191,-55.5333 h -69.1604 z m 38.0508,-105.154 v -38.0508 h 30.0811 c 11.0556,0 19.5397,7.9698 19.5397,18.76825 0,10.79845 -8.4841,19.28255 -19.5397,19.28255 z" />
 <path d="m 1538.1603,423.14865 h -61.7048 V 603.1185 h 61.7048 c 51.6761,0 91.0126,-38.5651 91.0126,-90.75545 0,-51.1636 -39.3365,-89.2144 -91.0126,-89.2144 z m -23.654,143.46195 V 459.65655 h 26.2237 c 28.7953,0 49.3634,22.1112 49.3634,52.7065 0,31.10775 -20.8253,54.24755 -49.3634,54.24755 z" />
 <path d="m 1714.1397,605.69 c 38.0508,0 66.0746,-23.6541 66.0746,-55.5333 0,-68.6461 -95.127,-46.7939 -95.127,-76.61775 0,-10.53945 8.9984,-16.9682 23.3952,-16.9682 16.4557,0 26.4827,10.28415 26.7399,23.91125 h 39.3364 c 0,-31.6239 -20.311,-59.90485 -64.7907,-59.90485 -35.4792,0 -61.9602,22.36835 -61.9602,53.21895 0,65.8193 94.6127,44.47955 94.6127,76.3606 0,11.82705 -11.5699,19.5397 -28.2809,19.5397 -17.9967,0 -30.5953,-10.28415 -30.5953,-26.2256 h -37.5365 c 0,35.99545 28.7952,62.2192 68.1318,62.2192 z" />
 <path d="m 1334.9323,211.5734 v 179.9717 h 110.0399 v -36.5079 h -71.9891 v -38.0508 h 64.2764 v -36.50975 h -64.2764 v -32.3935 h 71.9891 V 211.5734 Z" />
 <path d="M 1046.865,0 V 68.6461 H 970.24915 V 0 h -38.0508 v 179.97114 h 38.0508 v -74.81658 h 76.61585 v 74.81658 h 38.0527 V 0 Z" />
 <path d="m 1112.2219,391.5451 h 38.0507 V 285.8768 l 44.7368,105.6683 h 27.7666 l 45.7635,-105.6683 v 105.6683 h 38.3079 V 211.5734 h -39.0794 l -56.0476,123.9241 -53.2208,-123.9241 h -46.2777 z" />
 <path d="m 1112.2219,0 v 179.97114 h 110.0398 v -36.50845 h -71.9891 v -38.05098 h 64.2765 V 68.90325 h -64.2765 V 36.50846 h 71.9891 V 0 Z" />
</g>
</svg>