<?xml version="1.0" encoding="UTF-8" standalone="no"?>
<svg
   xmlns:dc="http://purl.org/dc/elements/1.1/"
   xmlns:cc="http://creativecommons.org/ns#"
   xmlns:rdf="http://www.w3.org/1999/02/22-rdf-syntax-ns#"
   xmlns:svg="http://www.w3.org/2000/svg"
   xmlns="http://www.w3.org/2000/svg"
   xmlns:sodipodi="http://sodipodi.sourceforge.net/DTD/sodipodi-0.dtd"
   xmlns:inkscape="http://www.inkscape.org/namespaces/inkscape"
   viewBox="0 0 999.99997 244.7324"
   aria-label="The Strategist"
   role="img"
   version="1.1"
   id="svg4591"
   sodipodi:docname="A.svg"
   width="999.99994"
   height="244.73241"
   inkscape:version="0.92.4 (5da689c313, 2019-01-14)">
  <metadata
     id="metadata4597">
    <rdf:RDF>
      <cc:Work
         rdf:about="">
        <dc:format>image/svg+xml</dc:format>
        <dc:type
           rdf:resource="http://purl.org/dc/dcmitype/StillImage" />
        <dc:title></dc:title>
      </cc:Work>
    </rdf:RDF>
  </metadata>
  <defs
     id="defs4595" />
  <sodipodi:namedview
     pagecolor="#ffffff"
     bordercolor="#111111"
     borderopacity="1"
     objecttolerance="10"
     gridtolerance="10"
     guidetolerance="10"
     inkscape:pageopacity="0"
     inkscape:pageshadow="2"
     inkscape:window-width="1920"
     inkscape:window-height="1017"
     id="namedview4593"
     showgrid="false"
     fit-margin-top="0"
     fit-margin-left="0"
     fit-margin-right="0"
     fit-margin-bottom="0"
     inkscape:zoom="0.61362206"
     inkscape:cx="594.00014"
     inkscape:cy="13.84518"
     inkscape:window-x="1912"
     inkscape:window-y="-8"
     inkscape:window-maximized="1"
     inkscape:current-layer="svg4591" />
  <path
     d="m 93.224849,23.926645 a 24.879094,24.879094 0 0 1 5.005481,-3.207215 10.19635,10.19635 0 0 1 4.07854,-0.982558 8.3610071,8.3610071 0 0 1 5.28357,1.853882 21.560646,21.560646 0 0 1 4.94986,6.395893 79.716919,79.716919 0 0 1 6.47005,15.36868 49.164946,49.164946 0 0 1 2.39151,13.95973 9.5845691,9.5845691 0 0 1 -1.85388,6.358815 6.5998193,6.5998193 0 0 1 -5.30211,2.261736 q -6.39589,0 -12.56932,-8.731784 L 99.935901,54.867933 A 46.198735,46.198735 0 0 0 85.104846,41.538523 38.412432,38.412432 0 0 0 66.714339,37.311672 q -13.737265,0 -21.523569,6.28466 a 21.060098,21.060098 0 0 0 -7.804842,17.352333 22.246582,22.246582 0 0 0 6.470048,16.351238 q 6.451508,6.59982 32.646859,17.760188 l 5.116713,2.20612 q 21.746042,9.084019 31.441842,17.815809 a 40.600012,40.600012 0 0 1 10.14073,14.31196 45.568415,45.568415 0 0 1 3.4853,17.81581 q 0,24.80494 -17.27818,38.65343 -17.278182,13.8485 -48.20093,13.8485 A 129.10433,129.10433 0 0 1 33.140539,196.74551 77.214178,77.214178 0 0 1 11.097884,188.77382 C 7.909207,186.91994 5.2766948,182.5077 3.1818083,175.55564 a 83.313449,83.313449 0 0 1 -3.15159916,-24.10046 14.552972,14.552972 0 0 1 2.09488646,-8.50932 6.9705957,6.9705957 0 0 1 6.0065772,-2.83644 q 5.6914172,0 11.6423782,10.82667 c 1.223562,2.26174 2.206119,3.96731 2.910594,5.11671 q 7.675071,13.5148 16.814708,19.61407 a 37.930422,37.930422 0 0 0 21.65334,6.11781 33.722111,33.722111 0 0 0 22.74713,-7.80484 24.378546,24.378546 0 0 0 9.139638,-19.31745 q 0,-17.00009 -36.206313,-32.70247 c -1.612877,-0.70448 -2.892055,-1.2421 -3.837535,-1.63142 Q 23.667202,107.35133 14.064095,96.580274 4.4609868,85.809221 4.3868315,68.772047 A 45.383027,45.383027 0 0 1 20.367293,32.95505 Q 36.440448,18.921164 62.042556,18.921164 a 89.301488,89.301488 0 0 1 14.497356,1.279179 167.46115,167.46115 0 0 1 16.684937,3.726302 z m 109.545881,52.09408 a 5.5616455,5.5616455 0 0 1 4.11562,1.167945 6.729591,6.729591 0 0 1 1.11233,4.542011 v 2.910594 a 6.8593628,6.8593628 0 0 1 -1.22356,4.542011 5.0796362,5.0796362 0 0 1 -4.00439,1.390411 h -25.04594 a 2.1875806,2.1875806 0 0 0 -1.85388,0.982557 4.9498645,4.9498645 0 0 0 -0.70448,2.854979 v 60.251157 q 0,15.60969 2.63251,19.55846 2.63252,3.94876 9.71434,3.94876 a 32.79517,32.79517 0 0 0 9.82558,-1.96511 32.646859,32.646859 0 0 1 8.41662,-1.92804 6.321737,6.321737 0 0 1 4.43078,1.5758 5.2650244,5.2650244 0 0 1 1.74265,4.13416 q 0,6.61836 -10.28905,12.86594 a 44.493164,44.493164 0 0 1 -23.34037,6.22904 43.176908,43.176908 0 0 1 -13.57041,-1.98365 27.956538,27.956538 0 0 1 -10.30759,-5.93242 21.301102,21.301102 0 0 1 -6.13635,-10.71544 q -1.74264,-6.69251 -1.74264,-24.86056 V 90.518081 h -11.23453 a 5.302102,5.302102 0 0 1 -3.55945,-0.926941 4.1712341,4.1712341 0 0 1 -0.98256,-3.151599 v -2.910595 q 0,-3.948768 12.68055,-14.831054 c 2.09489,-1.853882 3.70777,-3.225755 5.00548,-4.319545 1.29772,-1.09379 2.63252,-2.280275 4.65325,-4.060001 8.39808,-7.415528 14.12658,-11.123291 17.2411,-11.123291 a 6.2105041,6.2105041 0 0 1 3.83753,1.056712 3.4296814,3.4296814 0 0 1 1.39041,2.910595 v 22.858363 z m 58.47143,16.128772 1.16795,0.46347 a 55.412528,55.412528 0 0 1 12.97717,-14.831055 22.691514,22.691514 0 0 1 13.68165,-5.116713 17.982654,17.982654 0 0 1 13.38503,5.061097 18.538818,18.538818 0 0 1 5.00548,13.570415 20.930326,20.930326 0 0 1 -3.83754,13.329409 12.977173,12.977173 0 0 1 -10.73397,4.76448 14.831055,14.831055 0 0 1 -11.12329,-4.76448 16.091694,16.091694 0 0 1 -2.78083,-4.783014 c -0.85278,-2.094886 -1.74265,-3.13306 -2.68813,-3.13306 q -8.361,0 -11.69799,11.586764 -3.33699,11.58676 -3.31845,48.47901 a 64.366777,64.366777 0 0 0 1.46457,15.94338 c 0.96402,3.57799 2.53982,5.82119 4.70886,6.76667 1.16794,0.46347 2.76228,1.0011 4.76447,1.63142 q 7.41553,2.31735 7.41553,7.2116 0,4.54201 -6.74813,6.52566 -6.74813,1.98365 -23.52576,1.96512 -18.39051,0 -24.32293,-1.96512 c -3.96731,-1.33479 -5.93242,-3.70776 -5.93242,-7.41553 0,-2.7252 1.85388,-4.78301 5.82119,-6.17342 1.53872,-0.61178 2.63251,-1.07525 3.26283,-1.39041 a 9.6031079,9.6031079 0 0 0 4.41224,-5.82119 48.886864,48.886864 0 0 0 1.27918,-13.2738 c 0,-1.4831 0,-4.18977 -0.11123,-8.15708 -0.11124,-3.9673 -0.11124,-7.2116 -0.11124,-9.76995 v -7.04476 a 257.80081,257.80081 0 0 0 -1.00109,-29.21717 q -0.98256,-6.766673 -3.54092,-8.268317 a 39.320834,39.320834 0 0 0 -5.56164,-2.094886 q -7.19307,-2.335891 -7.2116,-6.414431 a 6.636897,6.636897 0 0 1 2.1505,-4.949865 24.248774,24.248774 0 0 1 7.63799,-4.115618 129.99419,129.99419 0 0 1 16.22147,-5.413335 51.519376,51.519376 0 0 1 10.90082,-2.03927 q 5.82119,0 7.78631,16.406855 c 0.0185,1.149406 0.12977,1.909498 0.20392,2.447124 z m 150.59083,70.317743 a 33.462567,33.462567 0 0 0 1.1494,10.23342 5.6914172,5.6914172 0 0 0 3.61507,4.07854 q 1.39041,0.46347 3.70777,1.05672 7.67507,2.09488 7.67507,6.15488 c 0,3.89315 -2.70667,7.41553 -8.13855,10.54859 a 37.300102,37.300102 0 0 1 -18.98375,4.70886 q -5.33917,0 -11.34575,-6.34028 a 66.165043,66.165043 0 0 0 -6.34028,-6.34027 16.202927,16.202927 0 0 0 -5.24648,2.66959 q -15.35015,10.01096 -30.27389,10.01096 -17.68604,0 -28.62394,-10.30758 -10.9379,-10.30759 -10.9379,-26.93691 0,-19.42868 14.0895,-30.3295 14.0895,-10.90083 39.30229,-10.88229 c 3.17014,0 6.65544,0.16685 10.41882,0.51909 3.76338,0.35224 7.80484,0.87132 12.16147,1.5758 l 0.11123,-12.81033 q 0,-10.696894 -4.65325,-16.481006 a 16.073155,16.073155 0 0 0 -13.27379,-5.747033 23.952153,23.952153 0 0 0 -11.12329,2.613973 33.610878,33.610878 0 0 0 -9.89973,8.082925 c -0.63032,0.704475 -1.4831,1.853881 -2.55836,3.151601 q -7.41552,9.26941 -15.60968,9.26941 a 9.899729,9.899729 0 0 1 -7.61946,-3.07745 11.753611,11.753611 0 0 1 -2.85497,-8.323926 q 0,-11.401373 14.0895,-19.206216 14.0895,-7.804842 36.37316,-7.767765 a 67.29591,67.29591 0 0 1 23.17352,3.559453 33.165946,33.165946 0 0 1 15.01645,10.289045 29.254255,29.254255 0 0 1 5.11671,12.105848 141.33995,141.33995 0 0 1 1.52018,24.804941 z m -27.71554,-24.10047 a 92.323315,92.323315 0 0 0 -9.26941,-1.5758 70.744131,70.744131 0 0 0 -8.37954,-0.51909 q -12.97718,0 -20.3927,5.82119 a 19.354526,19.354526 0 0 0 -7.41553,16.05462 20.040463,20.040463 0 0 0 6.34028,15.49845 q 6.37735,5.82119 17.05571,5.82119 c 7.91607,0 13.57041,-1.85388 16.94448,-5.24648 3.37406,-3.39261 5.0611,-9.47334 5.0611,-17.92704 z M 497.87164,76.020725 a 5.5616455,5.5616455 0 0 1 4.11562,1.167945 6.729591,6.729591 0 0 1 1.11233,4.542011 v 2.910594 a 6.8593628,6.8593628 0 0 1 -1.22356,4.542011 5.0796362,5.0796362 0 0 1 -4.00439,1.390411 H 472.8257 a 2.1875806,2.1875806 0 0 0 -1.85388,0.982557 4.9498645,4.9498645 0 0 0 -0.70448,2.854979 v 60.251157 q 0,15.60969 2.63251,19.55846 2.63251,3.94876 9.71434,3.94876 a 32.79517,32.79517 0 0 0 9.82558,-1.96511 32.646859,32.646859 0 0 1 8.32393,-1.92804 6.321737,6.321737 0 0 1 4.43077,1.5758 5.2650244,5.2650244 0 0 1 1.74265,4.13416 q 0,6.61836 -10.28904,12.86594 a 44.493164,44.493164 0 0 1 -23.34037,6.22904 43.176908,43.176908 0 0 1 -13.57042,-1.98365 27.956538,27.956538 0 0 1 -10.30758,-5.93242 21.301102,21.301102 0 0 1 -6.04366,-10.65982 q -1.74264,-6.69252 -1.74264,-24.86056 V 90.518081 h -11.1233 a 5.302102,5.302102 0 0 1 -3.55945,-0.926941 4.1712341,4.1712341 0 0 1 -0.98256,-3.151599 v -2.910595 q 0,-3.948768 12.68056,-14.831054 c 2.09488,-1.853882 3.70776,-3.225755 5.00548,-4.319545 1.29771,-1.09379 2.63251,-2.280275 4.65324,-4.060001 8.39808,-7.415528 14.12658,-11.123291 17.2411,-11.123291 a 6.2105041,6.2105041 0 0 1 3.83754,1.056712 3.4296814,3.4296814 0 0 1 1.39041,2.910595 V 76.020725 Z M 549.26125,134.177 h -1.63142 c -4.50493,0 -7.17452,0.35224 -8.02731,1.03817 -0.85278,0.68594 -1.27918,2.5769 -1.27918,5.56165 a 37.077637,37.077637 0 0 0 37.07764,36.89225 41.842113,41.842113 0 0 0 12.81032,-1.96512 44.493164,44.493164 0 0 0 11.97608,-6.06219 c 1.09379,-0.77863 2.57689,-1.85388 4.43078,-3.37407 4.04146,-3.33698 7.17452,-5.00548 9.43626,-5.00548 a 5.9694995,5.9694995 0 0 1 4.41223,1.74265 5.6914172,5.6914172 0 0 1 1.74265,4.18977 13.199639,13.199639 0 0 1 -2.89205,7.19307 41.712341,41.712341 0 0 1 -8.13854,8.32392 75.712534,75.712534 0 0 1 -20.3927,12.51371 58.619743,58.619743 0 0 1 -21.30111,3.70776 q -25.86165,0 -43.13983,-17.64895 -17.27818,-17.64896 -17.33379,-43.62184 0,-28.38294 17.74165,-46.736365 17.74165,-18.35343 45.45718,-18.334892 23.41453,0 37.07764,13.329411 13.66311,13.32941 13.73726,36.039466 0,7.41552 -2.20612,9.82557 -2.20612,2.41005 -11.29014,2.39151 z m -2.39151,-13.8485 h 39.30229 a 13.162561,13.162561 0 0 0 6.15489,-0.94548 3.8560742,3.8560742 0 0 0 1.52018,-3.59653 27.011058,27.011058 0 0 0 -7.86046,-19.743841 26.732976,26.732976 0 0 0 -19.85507,-7.971692 25.231332,25.231332 0 0 0 -19.07644,7.971692 27.530145,27.530145 0 0 0 -7.60092,19.743841 4.0229236,4.0229236 0 0 0 1.40895,3.59653 12.068771,12.068771 0 0 0 6.00658,0.94548 z m 103.81738,29.32841 A 39.209601,39.209601 0 0 1 636.301,118.66001 41.953346,41.953346 0 0 1 651.13205,85.772143 q 14.83106,-13.106944 37.7265,-13.088406 a 87.781305,87.781305 0 0 1 12.8474,1.11233 q 7.41553,1.112329 18.68713,3.707763 a 24.860555,24.860555 0 0 0 9.73288,-2.261736 79.327604,79.327604 0 0 0 12.86594,-7.415527 12.847401,12.847401 0 0 1 3.89315,3.707764 7.6009155,7.6009155 0 0 1 1.33479,4.245389 15.665301,15.665301 0 0 1 -3.83753,9.899729 34.333892,34.333892 0 0 1 -10.9379,8.490779 39.895537,39.895537 0 0 1 3.83753,9.732882 42.008962,42.008962 0 0 1 1.16795,9.9368 41.119099,41.119099 0 0 1 -14.73836,32.77664 q -14.71983,12.62493 -38.57929,12.62493 a 79.160754,79.160754 0 0 1 -12.97717,-0.98256 69.038559,69.038559 0 0 1 -11.41991,-2.85497 22.487587,22.487587 0 0 0 -3.70776,5.06109 9.9182678,9.9182678 0 0 0 -1.22357,4.4864 8.9171716,8.9171716 0 0 0 5.70996,8.43516 q 5.70996,2.74374 17.8158,2.74374 6.02512,0 18.53882,-1.33479 12.51371,-1.3348 18.98375,-1.3348 16.87033,0 25.84312,6.85937 8.97278,6.85936 8.95424,19.66968 0,19.33599 -18.96521,32.20193 -18.96521,12.86594 -48.29362,12.53224 -23.06229,0 -38.43097,-9.41772 -15.36868,-9.41772 -15.36868,-22.82128 a 17.463567,17.463567 0 0 1 3.85608,-10.99352 49.10933,49.10933 0 0 1 13.27379,-10.53005 23.859459,23.859459 0 0 1 -10.95644,-7.10037 16.499548,16.499548 0 0 1 -3.83754,-10.82667 19.743841,19.743841 0 0 1 4.43078,-12.05023 46.476818,46.476818 0 0 1 13.32941,-11.32722 z m 12.2727,46.86613 a 20.70786,20.70786 0 0 0 -4.65325,6.34028 17.40795,17.40795 0 0 0 -1.52018,7.26722 q 0,8.50932 8.73178,13.68165 8.73179,5.17233 23.41453,5.19087 16.29562,0 26.99252,-6.28466 10.6969,-6.28466 10.77106,-15.44284 a 10.715437,10.715437 0 0 0 -4.02293,-8.89863 17.982654,17.982654 0 0 0 -11.45699,-3.20722 q -3.13306,0 -14.14512,1.16795 a 182.40343,182.40343 0 0 1 -18.79836,1.16794 c -2.7252,0 -5.32064,0 -7.80484,-0.241 -2.4842,-0.24101 -4.94987,-0.38932 -7.50822,-0.74156 z m 1.63141,-81.03317 q 0,12.45809 6.17343,20.02192 a 19.76238,19.76238 0 0 0 16.07316,7.56384 21.894344,21.894344 0 0 0 17.11133,-7.61945 28.71663,28.71663 0 0 0 6.74813,-19.72531 q 0,-12.45808 -6.58129,-20.207308 a 21.356719,21.356719 0 0 0 -17.05571,-7.730688 19.910691,19.910691 0 0 0 -15.98046,7.916076 30.107041,30.107041 0 0 0 -6.48859,19.83654 z m 135.64854,10.99352 v 0.70447 q -0.44493,20.24439 -0.46347,29.81042 a 85.983039,85.983039 0 0 0 1.05671,16.29562 c 0.70447,3.17014 1.85388,5.22795 3.70776,6.17343 a 39.728688,39.728688 0 0 0 4.54201,1.96512 c 4.09708,1.4831 6.15489,3.70776 6.15489,6.8779 0,3.17014 -1.96511,5.3021 -5.93242,6.58128 -3.96731,1.27918 -11.21599,1.85388 -21.76457,1.85388 q -18.53882,0 -24.50832,-1.96511 c -4.00439,-1.3348 -5.98804,-3.70777 -5.98804,-7.41553 0,-2.72521 1.96512,-4.82009 5.93242,-6.28466 1.46457,-0.53763 2.52128,-0.96402 3.1516,-1.27918 a 9.6031079,9.6031079 0 0 0 4.41224,-5.82119 48.886864,48.886864 0 0 0 1.27918,-13.27379 c 0,-1.48311 0,-4.18978 -0.11123,-8.15708 -0.11124,-3.96731 -0.11124,-7.2116 -0.11124,-9.76996 v -12.43955 a 199.626,199.626 0 0 0 -0.94548,-24.91617 c -0.61178,-3.87461 -1.74265,-6.247581 -3.37406,-7.100367 a 37.948961,37.948961 0 0 0 -5.69142,-2.094886 q -7.41553,-2.335891 -7.41553,-6.414431 a 6.525664,6.525664 0 0 1 2.26174,-4.820093 24.100464,24.100464 0 0 1 7.50822,-4.24539 150.36836,150.36836 0 0 1 18.37197,-5.895344 62.772439,62.772439 0 0 1 12.97717,-2.261736 5.1537915,5.1537915 0 0 1 4.7274,2.335891 15.813612,15.813612 0 0 1 1.44603,7.916076 v 7.2116 c 0,1.872421 0,3.707764 -0.16685,5.561646 z M 764.51546,36.384731 a 14.979365,14.979365 0 0 1 5.69142,-11.753611 20.541011,20.541011 0 0 1 13.95973,-4.894248 19.465759,19.465759 0 0 1 12.97717,4.375161 13.95973,13.95973 0 0 1 5.17234,11.123291 14.12658,14.12658 0 0 1 -5.56165,11.290141 21.467952,21.467952 0 0 1 -14.14512,4.671782 19.688225,19.688225 0 0 1 -12.97717,-4.208312 13.088406,13.088406 0 0 1 -5.11672,-10.604204 z m 80.82925,159.730459 a 16.017539,16.017539 0 0 1 -3.70776,2.20612 10.159272,10.159272 0 0 1 -3.70776,0.70447 5.913883,5.913883 0 0 1 -2.44713,-0.59324 11.586761,11.586761 0 0 1 -2.55836,-1.63141 c -2.65105,-2.2432 -5.11671,-6.6369 -7.41552,-13.14403 a 55.616455,55.616455 0 0 1 -3.57799,-18.65005 9.9368066,9.9368066 0 0 1 2.09488,-6.47004 6.321737,6.321737 0 0 1 5.11672,-2.61398 q 5.56164,0 11.29014,9.76996 a 69.149792,69.149792 0 0 0 4.65324,7.41553 24.526857,24.526857 0 0 0 9.89973,7.56383 32.721014,32.721014 0 0 0 13.49626,2.79937 18.761284,18.761284 0 0 0 12.69909,-4.02293 13.514799,13.514799 0 0 0 4.65324,-10.77105 q 0,-10.23343 -20.3927,-20.02192 c -2.94767,-1.39042 -5.28356,-2.52128 -6.98913,-3.37407 q -18.96521,-9.41772 -25.60211,-17.35233 a 29.161561,29.161561 0 0 1 -6.6369,-19.42869 33.25864,33.25864 0 0 1 10.9379,-25.787492 q 10.95645,-9.955345 28.64248,-9.955345 a 78.993905,78.993905 0 0 1 8.62055,0.46347 66.406047,66.406047 0 0 1 8.60201,1.520183 50.536819,50.536819 0 0 1 5.70996,-2.224658 13.792881,13.792881 0 0 1 3.70776,-0.685936 c 3.94877,0 7.82338,3.170138 11.58676,9.547491 a 38.727591,38.727591 0 0 1 5.56165,20.021927 10.641282,10.641282 0 0 1 -1.85388,6.69251 6.3773535,6.3773535 0 0 1 -5.35772,2.39151 8.4166235,8.4166235 0 0 1 -5.46895,-2.28028 37.077637,37.077637 0 0 1 -6.41443,-8.212693 30.681744,30.681744 0 0 0 -9.36211,-10.418816 21.838728,21.838728 0 0 0 -11.58676,-2.966211 16.147311,16.147311 0 0 0 -11.21598,3.800458 13.81142,13.81142 0 0 0 0,20.133152 q 4.37516,4.31955 19.61407,11.88339 l 1.39041,0.68593 q 33.75918,16.68494 33.75918,36.33609 a 35.946769,35.946769 0 0 1 -12.97717,28.21608 q -12.97717,11.34576 -32.42439,11.36429 a 73.005867,73.005867 0 0 1 -9.60311,-0.76009 c -3.70776,-0.51908 -7.95315,-1.22356 -12.73617,-2.1505 z M 990.91151,76.020725 a 5.5616455,5.5616455 0 0 1 4.13416,1.167945 6.729591,6.729591 0 0 1 1.11233,4.542011 v 2.910594 a 6.8593628,6.8593628 0 0 1 -1.22356,4.542011 5.098175,5.098175 0 0 1 -4.02293,1.390411 h -25.06448 a 2.1690417,2.1690417 0 0 0 -1.85388,0.982557 4.8200928,4.8200928 0 0 0 -0.70448,2.854979 v 60.251157 q 0,15.60969 2.61398,19.55846 2.61397,3.94876 9.71434,3.94876 a 32.79517,32.79517 0 0 0 9.88119,-2.03927 32.48001,32.48001 0 0 1 8.32393,-1.85388 6.3588147,6.3588147 0 0 1 4.43078,1.5758 5.2650244,5.2650244 0 0 1 1.74261,4.13416 q 0,6.61836 -10.30755,12.86594 a 44.363392,44.363392 0 0 1 -23.34037,6.22904 43.13983,43.13983 0 0 1 -13.55188,-1.98365 27.956538,27.956538 0 0 1 -10.30758,-5.93242 21.467952,21.467952 0 0 1 -6.06219,-10.65982 q -1.72411,-6.69252 -1.74265,-24.86056 V 90.518081 h -11.12329 a 5.2094079,5.2094079 0 0 1 -3.54092,-0.926941 4.1712341,4.1712341 0 0 1 -1.00109,-3.151599 v -2.910595 q 0,-3.948768 12.69909,-14.831054 c 2.09488,-1.853882 3.70776,-3.225755 5.00548,-4.319545 l 4.65324,-4.060001 q 12.56932,-11.123291 17.22256,-11.123291 a 6.3031982,6.3031982 0 0 1 3.85608,1.056712 3.4296814,3.4296814 0 0 1 1.39041,2.910595 V 76.020725 Z M 215.7479,17.122899 a 1.7426489,1.7426489 0 0 1 1.2421,0.352238 2.0578088,2.0578088 0 0 1 0.3337,1.371872 v 0.871325 a 2.03927,2.03927 0 0 1 -0.37077,1.353333 1.4645666,1.4645666 0 0 1 -1.20503,0.426393 h -7.41552 a 0.611781,0.611781 0 0 0 -0.55617,0.296621 1.4089502,1.4089502 0 0 0 -0.22246,0.852786 V 40.79697 a 13.088406,13.088406 0 0 0 0.79717,5.858267 3.2257544,3.2257544 0 0 0 2.91059,1.186484 9.3621032,9.3621032 0 0 0 2.94767,-0.593242 10.066578,10.066578 0 0 1 2.50274,-0.593242 1.8538818,1.8538818 0 0 1 1.3348,0.482009 1.5757996,1.5757996 0 0 1 0.51908,1.242101 c 0,1.316256 -1.03817,2.613973 -3.09598,3.856074 a 13.292333,13.292333 0 0 1 -7.00767,1.853882 13.162561,13.162561 0 0 1 -4.06,-0.593243 8.6390893,8.6390893 0 0 1 -3.09599,-1.853881 6.5812805,6.5812805 0 0 1 -1.85388,-3.207216 34.611974,34.611974 0 0 1 -0.51908,-7.415527 V 21.49806 h -3.35553 a 1.5943384,1.5943384 0 0 1 -1.07525,-0.278082 1.3162561,1.3162561 0 0 1 -0.29662,-0.94548 v -0.871324 c 0,-0.79717 1.27918,-2.280275 3.81899,-4.430778 l 1.50165,-1.297717 1.39041,-1.223562 c 2.52128,-2.20612 4.24539,-3.3184498 5.17233,-3.3184498 a 1.8538818,1.8538818 0 0 1 1.14941,0.31516 1.0381738,1.0381738 0 0 1 0.42639,0.8713298 v 6.803742 z m 17.81581,3.707764 a 1.9836536,1.9836536 0 0 0 0.14831,0.871324 0.57470337,0.57470337 0 0 0 0.55616,0.296621 c 0,0 0.35224,-0.278082 0.77863,-0.834247 a 16.851786,16.851786 0 0 1 1.27918,-1.446027 13.551876,13.551876 0 0 1 3.91169,-2.688129 10.530049,10.530049 0 0 1 4.44932,-0.908402 10.937903,10.937903 0 0 1 9.26941,4.060001 c 2.03927,2.688129 3.07744,6.785207 3.07744,12.254159 v 11.957538 a 7.5638379,7.5638379 0 0 0 0.3337,2.651051 2.9105945,2.9105945 0 0 0 1.16795,1.297717 7.4155273,7.4155273 0 0 0 0.92694,0.370776 c 1.20502,0.444932 1.85388,1.075252 1.85388,1.853882 a 2.243197,2.243197 0 0 1 -1.74265,2.20612 29.272794,29.272794 0 0 1 -7.41553,0.593242 24.508318,24.508318 0 0 1 -6.52566,-0.574704 c -1.18649,-0.389315 -1.85388,-1.038173 -1.85388,-1.983653 0,-0.94548 0.63032,-1.612877 1.85388,-2.057809 a 8.5463952,8.5463952 0 0 0 1.37187,-0.593242 2.9105945,2.9105945 0 0 0 1.16795,-2.03927 29.550876,29.550876 0 0 0 0.3337,-5.394796 c 0,-7.804843 -0.50055,-12.699091 -1.46457,-14.664206 a 5.4133349,5.4133349 0 0 0 -5.32064,-2.947672 6.6925134,6.6925134 0 0 0 -3.70777,1.167946 7.6750708,7.6750708 0 0 0 -2.70666,3.13306 12.754707,12.754707 0 0 0 -1.11233,4.356622 c -0.20393,1.853882 -0.31516,5.172331 -0.31516,9.918268 a 24.248774,24.248774 0 0 0 0.29662,4.857171 2.3544299,2.3544299 0 0 0 1.07525,1.612877 8.2312353,8.2312353 0 0 0 1.35333,0.593242 c 1.24211,0.444932 1.85389,1.130868 1.85389,2.057809 0,0.926941 -0.59325,1.594338 -1.85389,1.983653 a 24.100464,24.100464 0 0 1 -6.47004,0.574704 29.309872,29.309872 0 0 1 -7.41553,-0.593242 2.2246582,2.2246582 0 0 1 -1.74265,-2.20612 c 0,-0.797169 0.5747,-1.40895 1.74265,-1.853882 0.44493,-0.166849 0.76009,-0.296621 0.98256,-0.407854 a 3.1701379,3.1701379 0 0 0 1.37187,-2.094886 24.100464,24.100464 0 0 0 0.40785,-5.561646 V 29.284364 c 0,-8.398085 0,-13.941192 -0.22246,-16.592247 a 12.513702,12.513702 0 0 0 -0.79717,-4.7459298 5.913883,5.913883 0 0 0 -2.53982,-1.11233 c -1.44603,-0.38932 -2.16904,-1.01964 -2.16904,-1.85388 a 2.0948865,2.0948865 0 0 1 0.88986,-1.68704 19.669686,19.669686 0 0 1 4.13416,-1.85388 25.954346,25.954346 0 0 1 3.70776,-0.98256001 17.982654,17.982654 0 0 1 3.22576,-0.44493 1.9836536,1.9836536 0 0 1 1.72411,0.68594 3.8560742,3.8560742 0 0 1 0.51908,2.31735001 v 1.53872 q -0.38931,7.1189098 -0.38931,14.4973588 z m 42.24997,13.774342 h -0.50055 a 5.1908691,5.1908691 0 0 0 -2.41005,0.31516 c -0.25954,0.203927 -0.37078,0.760091 -0.37078,1.668493 a 11.123291,11.123291 0 0 0 11.1233,11.123291 12.773246,12.773246 0 0 0 3.83753,-0.593242 13.681648,13.681648 0 0 0 3.59653,-1.853882 c 0.3337,-0.241004 0.77863,-0.574703 1.3348,-1.019635 a 5.2464856,5.2464856 0 0 1 2.8179,-1.501644 1.8538818,1.8538818 0 0 1 1.33479,0.519087 1.7241101,1.7241101 0 0 1 0.51909,1.260639 3.9302295,3.9302295 0 0 1 -0.9084,2.150503 11.883383,11.883383 0 0 1 -2.44713,2.502741 22.246582,22.246582 0 0 1 -6.09927,3.707763 17.5748,17.5748 0 0 1 -6.39589,1.149407 17.389412,17.389412 0 0 1 -12.97717,-5.302102 18.019731,18.019731 0 0 1 -5.04256,-13.088406 19.29891,19.29891 0 0 1 5.32064,-14.015346 18.168042,18.168042 0 0 1 13.64457,-5.561646 15.201831,15.201831 0 0 1 11.12329,4.004385 14.367584,14.367584 0 0 1 4.11562,10.808131 4.5234717,4.5234717 0 0 1 -0.6674,2.947672 q -0.6674,0.723014 -3.3926,0.723014 z m -0.74156,-4.152696 h 11.80923 a 4.0414624,4.0414624 0 0 0 1.85388,-0.278082 1.223562,1.223562 0 0 0 0.46347,-1.09379 8.1385412,8.1385412 0 0 0 -8.32393,-8.305391 7.5823767,7.5823767 0 0 0 -5.72849,2.391508 8.2312353,8.2312353 0 0 0 -2.28028,5.913883 1.2606396,1.2606396 0 0 0 0.4264,1.09379 3.7077637,3.7077637 0 0 0 1.77972,0.278082 z"
     id="path4589"
     inkscape:connector-curvature="0"
     style="stroke-width:1.85388184" />
</svg>
