<?xml version="1.0" encoding="UTF-8" standalone="no"?>
<svg
   xmlns:dc="http://purl.org/dc/elements/1.1/"
   xmlns:cc="http://creativecommons.org/ns#"
   xmlns:rdf="http://www.w3.org/1999/02/22-rdf-syntax-ns#"
   xmlns:svg="http://www.w3.org/2000/svg"
   xmlns="http://www.w3.org/2000/svg"
   xmlns:sodipodi="http://sodipodi.sourceforge.net/DTD/sodipodi-0.dtd"
   xmlns:inkscape="http://www.inkscape.org/namespaces/inkscape"
   viewBox="0 0 1000 122.88045"
   version="1.1"
   id="svg28"
   sodipodi:docname="NYT-WIRE-rgb-k3-T-.svg"
   width="1000"
   height="122.88045"
   inkscape:version="0.92.4 (5da689c313, 2019-01-14)">
  <metadata
     id="metadata34">
    <rdf:RDF>
      <cc:Work
         rdf:about="">
        <dc:format>image/svg+xml</dc:format>
        <dc:type
           rdf:resource="http://purl.org/dc/dcmitype/StillImage" />
        <dc:title>NYT-WIRE-rgb-k3-T-</dc:title>
      </cc:Work>
    </rdf:RDF>
  </metadata>
  <defs
     id="defs32" />
  <sodipodi:namedview
     pagecolor="#ffffff"
     bordercolor="#111111"
     borderopacity="1"
     objecttolerance="10"
     gridtolerance="10"
     guidetolerance="10"
     inkscape:pageopacity="0"
     inkscape:pageshadow="2"
     inkscape:window-width="1920"
     inkscape:window-height="1017"
     id="namedview30"
     showgrid="false"
     fit-margin-top="0"
     fit-margin-left="0"
     fit-margin-right="0"
     fit-margin-bottom="0"
     inkscape:zoom="1.0216049"
     inkscape:cx="502.51934"
     inkscape:cy="13.906889"
     inkscape:window-x="1912"
     inkscape:window-y="-8"
     inkscape:window-maximized="1"
     inkscape:current-layer="svg28" />
  <title
     id="title2">NYT-WIRE-rgb-k3-T-</title>
  <path
     d="M 94.748291,75.956894 A 38.657551,38.657551 0 0 1 72.995649,98.859318 V 75.956894 L 85.42573,64.676596 72.995649,53.551673 V 37.796546 A 19.763828,19.763828 0 0 0 92.3555,18.281319 C 92.3555,4.7636061 79.490367,0.00910011 72.187694,0.00910011 a 22.311995,22.311995 0 0 0 -5.904288,0.621504 V 1.2521081 c 0.963331,0 2.39279,-0.155376 2.858918,-0.155376 5.096334,0 8.918583,2.392791 8.918583,6.991921 a 7.3337477,7.3337477 0 0 1 -7.955251,7.0851459 c -12.430081,0 -27.346178,-10.1926659 -43.505283,-10.1926659 -14.294593,0 -24.145432,10.6587939 -24.145432,21.4729639 0,10.814171 6.2150404,14.139217 12.709758,16.532008 v -0.65258 a 7.6134245,7.6134245 0 0 1 -3.480423,-6.99192 9.3225606,9.3225606 0 0 1 10.254817,-8.825357 c 13.517712,0 35.301429,11.280298 48.819142,11.280298 h 1.274083 V 53.707049 L 59.446861,64.676596 72.032318,75.956894 v 23.11995 A 47.296457,47.296457 0 0 1 55.811063,101.78039 C 34.804226,101.87361 21.441889,89.163855 21.441889,68.001642 a 51.398384,51.398384 0 0 1 2.050964,-14.791796 l 10.503418,-4.59913 v 46.612803 l 21.286513,-9.32256 V 38.107298 L 23.990056,52.122214 A 34.182722,34.182722 0 0 1 41.485395,32.389461 V 31.923333 C 20.354257,36.522463 0,52.464041 0,76.267646 0,103.7692 23.213176,122.88045 50.248602,122.88045 c 28.620261,0 44.810441,-19.08017 44.965817,-46.892481 z"
     id="path4"
     inkscape:connector-curvature="0"
     style="stroke-width:3.1075201" />
  <path
     d="M 376.9422,96.715129 V 61.786602 h -6.37042 V 41.028367 h 42.41765 v 11.777502 c 6.83655,-7.302673 14.48105,-13.517713 25.13984,-13.517713 a 42.479801,42.479801 0 0 1 4.44376,0.155376 v 26.413921 a 65.009323,65.009323 0 0 0 -17.02921,1.274084 16.625233,16.625233 0 0 0 -10.6588,7.333747 c -1.42946,2.703543 -1.89559,5.873214 -1.89559,14.636421 v 7.613424 h 8.57676 V 117.41121 H 370.57178 V 96.715129 Z"
     id="path6"
     inkscape:connector-curvature="0"
     style="stroke-width:3.1075201" />
  <path
     d="m 489.90056,118.99605 c -11.46675,0 -24.20758,-2.39279 -33.09509,-10.34804 A 38.657551,38.657551 0 0 1 443.59851,78.909038 c 0,-24.860161 19.88813,-39.465506 43.50528,-39.465506 25.76134,0 42.79055,18.147918 42.79055,40.08701 0,2.548167 -0.15537,4.940957 -0.31075,7.489124 h -49.8757 c 0.96333,8.918583 5.71784,12.896209 13.05159,12.896209 a 14.139217,14.139217 0 0 0 11.93288,-6.681169 h 24.86016 c -5.12741,17.495344 -21.19329,25.761344 -39.65196,25.761344 z M 479.55252,75.242165 h 18.64512 v -1.895588 c 0,-6.525792 -1.58484,-13.206961 -9.32256,-13.206961 a 8.7010566,8.7010566 0 0 0 -8.57676,6.028589 24.580485,24.580485 0 0 0 -0.7458,9.07396 z"
     id="path8"
     inkscape:connector-curvature="0"
     style="stroke-width:3.1075201" />
  <path
     d="m 569.45308,39.443532 c 8.11062,0 14.63642,1.926662 18.64512,6.525792 v -4.940957 h 22.90242 V 70.79841 H 588.0982 c 0,-6.99192 -3.10752,-10.658794 -7.6445,-10.658794 -5.71784,0 -9.54009,6.215041 -9.54009,14.947172 0,14.481045 9.07396,21.472965 21.75264,21.472965 a 65.257924,65.257924 0 0 0 18.45867,-2.858919 v 19.888126 a 74.580485,74.580485 0 0 1 -29.58359,5.40709 50.031075,50.031075 0 0 1 -26.41392,-6.02859 A 41.050342,41.050342 0 0 1 535.0839,76.827 c 0,-21.628341 14.63642,-37.383468 34.36918,-37.383468 z"
     id="path10"
     inkscape:connector-curvature="0"
     style="stroke-width:3.1075201" />
  <path
     d="m 650.59043,118.99605 c -17.02921,0 -27.53263,-9.85084 -27.53263,-25.761344 V 61.786602 h -6.68117 V 41.028367 h 42.63518 V 86.86429 c 0,6.370416 2.70354,9.850839 8.11063,9.850839 4.78558,0 7.6445,-3.480423 7.6445,-9.850839 V 61.786602 h -7.1473 V 41.028367 h 43.1013 v 55.686762 h 6.37042 v 20.696081 h -42.32442 v -9.0118 c -5.71784,4.56805 -14.48105,10.59664 -24.17651,10.59664 z"
     id="path12"
     inkscape:connector-curvature="0"
     style="stroke-width:3.1075201" />
  <path
     d="M 718.70727,61.786602 V 41.028367 h 7.17837 V 17.162612 h 35.95401 v 23.865755 h 10.6588 v 20.758235 h -10.6588 v 34.928527 h 10.6588 V 117.41121 H 725.88564 V 61.786602 Z"
     id="path14"
     inkscape:connector-curvature="0"
     style="stroke-width:3.1075201" />
  <path
     d="M 777.09758,61.786602 V 41.028367 h 7.17837 V 17.162612 h 35.95401 v 23.865755 h 10.65879 v 20.758235 h -10.65879 v 34.928527 h 10.65879 v 20.696081 h -46.6128 V 61.786602 Z"
     id="path16"
     inkscape:connector-curvature="0"
     style="stroke-width:3.1075201" />
  <path
     d="m 882.22498,118.99605 c -11.43567,0 -24.1765,-2.39279 -33.09509,-10.34804 A 38.781852,38.781852 0 0 1 835.92293,78.909038 c 0,-24.860161 19.88813,-39.465506 43.50529,-39.465506 25.79241,0 42.82162,18.147918 42.82162,40.08701 0,2.548167 -0.15537,4.940957 -0.31075,7.489124 h -49.84462 c 0.93225,8.918583 5.71784,12.896209 13.05158,12.896209 a 14.201367,14.201367 0 0 0 11.93288,-6.681169 h 24.86016 c -5.12741,17.495344 -21.06898,25.761344 -39.71411,25.761344 z M 871.90802,75.242165 h 18.64512 v -1.895588 c 0,-6.525792 -1.58484,-13.206961 -9.32256,-13.206961 a 8.7321318,8.7321318 0 0 0 -8.60783,6.028589 24.860162,24.860162 0 0 0 -0.68366,9.07396 z"
     id="path18"
     inkscape:connector-curvature="0"
     style="stroke-width:3.1075201" />
  <path
     d="M 934.4624,96.715129 V 61.786602 h -6.37042 V 41.028367 h 42.32443 v 11.777502 c 6.83654,-7.302673 14.48104,-13.517713 25.13984,-13.517713 A 42.479801,42.479801 0 0 1 1000,39.443532 v 26.413921 a 65.009323,65.009323 0 0 0 -17.02921,1.274084 16.625233,16.625233 0 0 0 -10.62772,7.333747 c -1.42946,2.703543 -1.89559,5.873214 -1.89559,14.636421 v 7.613424 h 8.57676 V 117.41121 H 928.09198 V 96.715129 Z"
     id="path20"
     inkscape:connector-curvature="0"
     style="stroke-width:3.1075201" />
  <path
     d="M 322.87135,96.83943 V 62.066279 h -6.21504 V 41.52557 h 42.04475 v 55.31386 h 6.61901 v 20.54071 H 316.46986 V 96.83943 Z M 358.60783,6.7213441 V 33.725694 H 322.87135 V 6.5970431 Z"
     id="path22"
     inkscape:connector-curvature="0"
     style="stroke-width:3.1075201" />
  <path
     d="M 159.10503,28.940113 V 6.5970431 h 52.6414 V 28.940113 h -7.2716 l 11.12492,44.779367 v 0 L 232.75326,6.5970431 h 27.40833 l 16.84276,69.2977009 h 0.27968 l 12.1504,-46.954631 H 278.06091 V 6.5970431 h 38.2225 V 28.940113 h -4.35053 L 287.07272,117.41121 H 252.01989 L 239.58981,67.349063 h -0.31075 L 226.53822,117.41121 H 191.23679 L 166.15911,28.940113 Z"
     id="path24"
     inkscape:connector-curvature="0"
     style="stroke-width:3.1075201" />
  <rect
     x="124.45619"
     y="7.2185493"
     width="2.9210689"
     height="110.44127"
     id="rect26"
     style="stroke-width:3.1075201" />
</svg>
