<?xml version="1.0" encoding="UTF-8"?>
<svg id="Layer_2" data-name="Layer 2" xmlns="http://www.w3.org/2000/svg" xmlns:xlink="http://www.w3.org/1999/xlink" viewBox="0 0 952.88 156.82">
  <defs>
    <style>
      .cls-1 {
        fill: #333;
      }

      .cls-2, .cls-3 {
        fill: none;
      }

      .cls-3 {
        clip-path: url(#clippath);
      }
    </style>
    <clipPath id="clippath">
      <circle class="cls-2" cx="145.82" cy="140" r="140"/>
    </clipPath>
    <symbol id="logo" viewBox="0 0 291.64 280">
      <g class="cls-3">
        <g>
          <polygon class="cls-1" points="96 218 96 278.75 127.77 278.75 127.77 243.75 163.77 243.75 163.77 278.75 195.65 278.75 195.65 218.08 145.82 181.88 96 218"/>
          <polygon class="cls-1" points="281.85 166.56 291.64 136.22 233.89 117.6 184.15 153.91 203.24 212.41 261.06 231.05 270.81 200.82 237.5 190.08 248.54 155.82 281.85 166.56"/>
          <polygon class="cls-1" points="231.25 108.99 266.98 59.86 241.3 41.18 220.71 69.48 191.6 48.31 212.18 20 186.4 1.25 150.71 50.32 169.71 108.89 231.25 108.99"/>
          <polygon class="cls-1" points="122.24 108.89 141.24 50.36 105.46 1.26 79.79 19.97 100.4 48.26 71.31 69.46 50.7 41.17 24.93 59.94 60.66 108.98 122.24 108.89"/>
          <polygon class="cls-1" points="57.82 117.79 0 136.43 9.74 166.66 43.06 155.92 54.1 190.19 20.79 200.92 30.57 231.26 88.32 212.65 107.48 154.13 57.82 117.79"/>
        </g>
      </g>
    </symbol>
  </defs>
  <g id="Layer_6" data-name="Layer 6">
    <use width="291.64" height="280" transform="scale(.56)" xlink:href="#logo"/>
    <g>
      <path class="cls-1" d="m183.96,133.28v-12.86l11.39-2.21V41.42l-11.39-2.21v-12.93h44.31v12.93l-11.46,2.21v30.87h43.65v-30.87l-11.46-2.21v-12.93h44.31v12.93l-11.46,2.21v76.8l11.46,2.21v12.86h-44.31v-12.86l11.46-2.21v-29.4h-43.65v29.4l11.46,2.21v12.86h-44.31Z"/>
      <path class="cls-1" d="m339.97,134.82c-7.84,0-14.58-1.71-20.21-5.14-5.63-3.43-9.95-8.19-12.93-14.29-2.99-6.1-4.48-13.12-4.48-21.05v-1.54c0-7.89,1.49-14.88,4.48-20.98,2.99-6.1,7.29-10.88,12.9-14.33,5.61-3.45,12.31-5.18,20.1-5.18s14.62,1.73,20.21,5.18c5.59,3.45,9.87,8.22,12.86,14.29,2.99,6.08,4.48,13.08,4.48,21.02v1.54c0,7.94-1.5,14.96-4.48,21.05-2.99,6.1-7.28,10.87-12.86,14.29-5.58,3.43-12.27,5.14-20.06,5.14Zm0-16.46c3.72,0,6.76-1,9.11-3.01,2.35-2.01,4.09-4.81,5.22-8.41,1.13-3.6,1.69-7.8,1.69-12.6v-1.54c0-4.7-.56-8.86-1.69-12.46-1.13-3.6-2.88-6.42-5.25-8.45-2.38-2.03-5.45-3.05-9.22-3.05s-6.71,1.02-9.11,3.05c-2.4,2.03-4.15,4.85-5.25,8.45-1.1,3.6-1.65,7.75-1.65,12.46v1.54c0,4.8.55,9.01,1.65,12.64,1.1,3.63,2.85,6.43,5.25,8.42,2.4,1.98,5.49,2.98,9.26,2.98Z"/>
      <path class="cls-1" d="m420.67,134.82c-8.38,0-14.96-2.66-19.73-7.97-4.78-5.32-7.17-13.58-7.17-24.8v-33.14l-8.75-2.2v-12.93h30.2v48.43c0,5.68.99,9.76,2.98,12.24,1.98,2.47,4.98,3.71,9,3.71,3.18,0,6-.62,8.45-1.87,2.45-1.25,4.46-3.02,6.03-5.33v-42.04l-9.48-2.2v-12.93h30.94v64.45l9.55,2.21v12.86h-28.37l-1.47-10.07c-2.5,3.72-5.63,6.59-9.41,8.6-3.77,2.01-8.04,3.01-12.79,3.01Z"/>
      <path class="cls-1" d="m514.73,134.82c-5.93,0-11.45-.56-16.57-1.69-5.12-1.13-10.03-2.74-14.73-4.85l-.22-22.49h14.92l2.87,11.46c1.67.83,3.49,1.5,5.48,1.98,1.98.49,4.25.73,6.8.73,4.8,0,8.18-.78,10.14-2.35,1.96-1.57,2.94-3.53,2.94-5.88,0-2.21-1.04-4.15-3.12-5.84-2.08-1.69-6.23-3.17-12.46-4.45-9.41-1.96-16.34-5-20.8-9.11-4.46-4.12-6.69-9.38-6.69-15.8,0-4.41,1.11-8.43,3.34-12.05,2.23-3.62,5.63-6.54,10.21-8.75,4.58-2.21,10.45-3.31,17.6-3.31,5.98,0,11.45.58,16.42,1.73,4.97,1.15,9.15,2.66,12.53,4.52l.22,21.75h-14.84l-2.28-10.44c-1.32-.98-2.88-1.71-4.67-2.2-1.79-.49-3.81-.74-6.06-.74-3.77,0-6.66.76-8.67,2.28-2.01,1.52-3.01,3.48-3.01,5.88,0,1.37.35,2.65,1.07,3.82.71,1.18,2.12,2.28,4.23,3.31,2.11,1.03,5.17,2.01,9.19,2.94,9.85,2.25,17.02,5.25,21.53,9s6.76,9,6.76,15.76c0,7.4-2.68,13.38-8.05,17.93-5.37,4.56-13.39,6.83-24.07,6.83Z"/>
      <path class="cls-1" d="m605.86,134.82c-10.63,0-19.7-2.2-27.19-6.61-7.5-4.41-13.24-10.53-17.23-18.37-3.99-7.84-5.99-16.93-5.99-27.26v-3.67c0-10.68,1.98-20.09,5.95-28.22,3.97-8.13,9.59-14.49,16.87-19.07,7.28-4.58,15.88-6.87,25.83-6.87,7.69,0,14.92,1.05,21.68,3.16,6.76,2.11,12.64,5.27,17.64,9.48v23.74h-15.87l-3.01-14.33c-1.91-1.67-4.48-3-7.72-4-3.23-1-6.93-1.51-11.1-1.51-5.98,0-11.13,1.58-15.47,4.74s-7.66,7.54-9.96,13.15c-2.3,5.61-3.45,12.14-3.45,19.59v3.82c0,7.25,1.14,13.56,3.42,18.92,2.28,5.37,5.62,9.52,10.03,12.46,4.41,2.94,9.82,4.41,16.24,4.41,3.77,0,7.24-.36,10.4-1.07,3.16-.71,5.77-1.58,7.83-2.61v-18.15l-15.29-1.18v-15.06h36.82v43.29c-4.75,3.38-10.47,6.1-17.16,8.16s-14.44,3.09-23.26,3.09Z"/>
      <path class="cls-1" d="m695.59,134.82c-7.59,0-14.23-1.68-19.92-5.03-5.68-3.35-10.08-7.97-13.19-13.85-3.11-5.88-4.67-12.59-4.67-20.14v-2.94c0-7.89,1.47-14.88,4.41-20.98,2.94-6.1,7.09-10.89,12.46-14.37,5.36-3.48,11.7-5.22,19-5.22s13.25,1.42,18.15,4.26c4.9,2.84,8.62,6.93,11.17,12.27,2.55,5.34,3.82,11.81,3.82,19.4v11.68h-46.74l-.15.44c.29,3.48,1.16,6.58,2.61,9.3,1.44,2.72,3.49,4.85,6.14,6.39s5.85,2.32,9.63,2.32,7.58-.5,10.99-1.51c3.4-1,6.72-2.49,9.96-4.45l5.81,13.23c-3.28,2.65-7.41,4.84-12.38,6.58s-10.67,2.61-17.09,2.61Zm-15.36-49.09h26.53v-1.91c0-3.23-.43-6.01-1.29-8.34-.86-2.33-2.23-4.13-4.12-5.4-1.89-1.27-4.32-1.91-7.31-1.91s-5.24.75-7.2,2.24c-1.96,1.5-3.49,3.54-4.59,6.14-1.1,2.6-1.85,5.54-2.24,8.82l.22.37Z"/>
      <path class="cls-1" d="m763.35,134.82c-7.89,0-14.16-2.12-18.81-6.36-4.66-4.24-6.98-10.01-6.98-17.31s3.04-13.58,9.11-18.26c6.07-4.68,14.97-7.02,26.68-7.02h10.51v-5.88c0-3.82-1.12-6.92-3.34-9.3-2.23-2.38-5.57-3.56-10.03-3.56-2.3,0-4.36.28-6.17.85-1.81.56-3.48,1.36-5,2.39l-1.69,10.51h-15.43l-.29-20.65c4.16-2.35,8.67-4.26,13.52-5.73,4.85-1.47,10.26-2.21,16.24-2.21,10.39,0,18.59,2.41,24.62,7.24,6.03,4.83,9.04,11.72,9.04,20.69v32.78c0,1.08.01,2.14.04,3.2.02,1.05.11,2.07.26,3.05l8.3,1.18v12.86h-26.6c-.54-1.37-1.08-2.84-1.62-4.41-.54-1.57-.93-3.13-1.18-4.7-2.55,3.23-5.55,5.82-9,7.75s-7.51,2.9-12.16,2.9Zm5.73-15.87c2.99,0,5.83-.67,8.53-2.02,2.69-1.35,4.78-3.12,6.25-5.33v-12.57h-10.58c-4.7,0-8.27,1.08-10.69,3.23-2.42,2.16-3.64,4.75-3.64,7.79,0,2.84.89,5.03,2.68,6.58,1.79,1.54,4.27,2.32,7.46,2.32Z"/>
      <path class="cls-1" d="m823.17,133.28v-12.86l10.29-2.21v-49.31l-11.39-2.2v-12.93h31.38l.81,9.85.15,1.76c1.96-4.31,4.38-7.57,7.28-9.77,2.89-2.2,6.34-3.31,10.36-3.31,1.27,0,2.67.11,4.19.33s2.87.5,4.04.84l-2.28,19.77-10.66-.59c-3.04-.15-5.5.37-7.39,1.54-1.89,1.18-3.56,2.87-5.03,5.07v38.95l10.29,2.21v12.86h-42.04Z"/>
      <path class="cls-1" d="m920.76,134.82c-5.93,0-11.45-.56-16.57-1.69-5.12-1.13-10.03-2.74-14.73-4.85l-.22-22.49h14.92l2.87,11.46c1.67.83,3.49,1.5,5.47,1.98,1.98.49,4.25.73,6.8.73,4.8,0,8.18-.78,10.14-2.35,1.96-1.57,2.94-3.53,2.94-5.88,0-2.21-1.04-4.15-3.12-5.84-2.08-1.69-6.24-3.17-12.46-4.45-9.41-1.96-16.34-5-20.8-9.11-4.46-4.12-6.69-9.38-6.69-15.8,0-4.41,1.11-8.43,3.34-12.05,2.23-3.62,5.63-6.54,10.21-8.75s10.45-3.31,17.6-3.31c5.98,0,11.45.58,16.42,1.73,4.97,1.15,9.15,2.66,12.53,4.52l.22,21.75h-14.84l-2.28-10.44c-1.32-.98-2.88-1.71-4.67-2.2-1.79-.49-3.81-.74-6.06-.74-3.77,0-6.66.76-8.67,2.28-2.01,1.52-3.01,3.48-3.01,5.88,0,1.37.35,2.65,1.07,3.82.71,1.18,2.12,2.28,4.23,3.31,2.11,1.03,5.17,2.01,9.19,2.94,9.85,2.25,17.02,5.25,21.53,9,4.51,3.75,6.76,9,6.76,15.76,0,7.4-2.68,13.38-8.05,17.93-5.37,4.56-13.39,6.83-24.07,6.83Z"/>
    </g>
  </g>
</svg>