<svg version="1.2" xmlns="http://www.w3.org/2000/svg" viewBox="0 0 1551 1766" height="50"><defs><linearGradient id="P" gradientUnits="userSpaceOnUse"/><radialGradient id="g1" cx="0" cy="0" r="1" href="#P" gradientTransform="matrix(922.116,0,0,922.116,775.022,883.101)"><stop offset=".19" stop-color="#ffe72e"/><stop offset=".48" stop-color="#fab82b"/><stop offset="1" stop-color="#f05b24"/></radialGradient></defs><style>.a{fill:url(#g1)}</style><path fill-rule="evenodd" class="a" d="m1305.8 69.4c-85.1-55.3-186.5-74.8-293.9-67-106.1 7-218 40.4-326.9 92.4-163.4 77.8-319.3 197.3-438.3 333.4-40 45.9-75.7 93.6-106.3 142.3-163.7 263.1-180.6 572.3-69.6 812 52.7 113.8 134.3 211.8 242.9 281.4 13.4 8.7 27 17 40.9 24.3 88 47.5 183.2 72.4 280.3 76.4 270.9 12 555.2-138 725.9-412.5 241.8-388 282.2-1066.9-55-1282.7z"/></svg>