<svg width="117" height="48" viewBox="0 0 117 48" fill="none" xmlns="http://www.w3.org/2000/svg">
<rect width="116.706" height="48" fill="#006554"/>
<path d="M82.9859 22.1272L82.9887 22.1248L82.9906 22.1272H82.9859Z" fill="white"/>
<path d="M82.9887 22.1248C83.5942 21.6269 84.0028 21.1618 84.2612 20.7201C84.52 20.2777 84.6282 19.8542 84.6282 19.4636C84.6282 19.106 84.5388 18.7813 84.4165 18.4895L83.9459 18.6871C84.0494 18.9319 84.12 19.186 84.12 19.4636C84.12 19.7601 84.0447 20.0848 83.8235 20.4613C83.6024 20.8377 83.24 21.2613 82.6659 21.7319L82.9887 22.1248Z" fill="white"/>
<path d="M82.7035 23.2707C83.7576 22.5695 84.3976 21.9483 84.7741 21.3554C85.1553 20.7624 85.2635 20.2024 85.2588 19.6848C85.2588 19.5813 85.2588 19.4777 85.2494 19.3742L84.7412 19.4072L84.7418 19.4201C84.7463 19.5095 84.7506 19.595 84.7506 19.6848C84.7506 20.1366 84.6706 20.5695 84.3459 21.0824C84.0212 21.5907 83.4376 22.1742 82.4212 22.8472L82.7035 23.2707Z" fill="white"/>
<path d="M84.8494 22.6025C84.1906 23.3648 83.2682 24.0848 82.1717 24.5083L82.1764 24.5036L81.9929 24.0283C82.7459 23.7413 83.4188 23.2895 83.9647 22.786C84.5106 22.2825 84.9294 21.7177 85.1694 21.2236C85.3294 20.8989 85.4047 20.5977 85.4047 20.3813V20.306L85.9129 20.2636C85.9176 20.3013 85.9176 20.3436 85.9176 20.3812C85.9129 20.7106 85.8094 21.073 85.6259 21.4495C85.4423 21.826 85.1788 22.2213 84.8494 22.6025Z" fill="white"/>
<path d="M86.1012 16.6589C84.6565 16.2072 83.1176 17.0166 82.6659 18.4613C82.2141 19.906 83.0235 21.4448 84.4682 21.8966C85.9129 22.3483 87.4518 21.5389 87.8988 20.0942C88.3506 18.6495 87.5459 17.1107 86.0965 16.6636L86.1012 16.6589Z" fill="#C7C8CA"/>
<path d="M88.0179 19.4063L88.0212 19.4072L88.0165 19.4261L88.0179 19.4063Z" fill="white"/>
<path d="M86.0447 16.659C87.452 17.0564 88.0882 18.3967 88.0179 19.4063C87.9915 19.3993 87.9739 19.4172 87.9694 19.4308C87.9605 19.4651 87.9496 19.4966 87.9391 19.527C87.9165 19.5926 87.8956 19.6533 87.8988 19.7272C87.8988 19.7696 87.9224 19.7649 87.9318 19.699C87.9318 19.6516 87.9568 19.6057 87.9797 19.5637C87.9977 19.5307 88.0144 19.5001 88.0165 19.4731C88.0165 19.5767 87.9694 19.8449 87.9459 19.9155L87.9177 19.8778C87.8807 19.9047 87.8582 19.9435 87.8346 19.984C87.8252 20.0003 87.8155 20.0169 87.8047 20.0331C87.7765 20.0755 87.7388 20.1178 87.6871 20.1414V20.1602C87.6999 20.1709 87.7167 20.1631 87.7294 20.1571C87.7445 20.15 87.7538 20.1457 87.7435 20.179L87.753 20.1978C87.7698 20.1866 87.7749 20.1737 87.7803 20.1601C87.7839 20.1509 87.7877 20.1414 87.7953 20.1319C87.8377 20.0661 87.8847 19.9955 87.9365 19.939C87.9035 20.0708 87.8659 20.1884 87.8141 20.3155C87.7953 20.2872 87.7671 20.2731 87.7294 20.2872C87.6541 20.3108 87.5412 20.4708 87.5129 20.579C87.4988 20.6214 87.5129 20.6355 87.5365 20.6072L87.5508 20.5902C87.608 20.5221 87.7137 20.3963 87.7482 20.4049C87.7444 20.4156 87.7405 20.4266 87.7366 20.4379C87.6968 20.5513 87.6482 20.6898 87.5412 20.7155C87.5378 20.7161 87.5341 20.7172 87.5303 20.7183C87.5069 20.7249 87.478 20.733 87.4941 20.6684C87.4813 20.6749 87.4683 20.6817 87.4551 20.6886C87.3915 20.7221 87.3252 20.757 87.2588 20.7531L87.258 20.7544C87.2053 20.8359 87.037 21.096 86.9059 20.979L86.8541 21.0025C86.84 20.8472 87.1082 20.7343 87.2353 20.7296C87.2541 20.7202 87.2635 20.6967 87.24 20.6496C87.1977 20.5555 86.9859 20.6684 86.8682 20.8849C86.76 20.7861 86.5953 20.8943 86.5577 20.9461C86.4965 21.0308 86.2659 21.139 86.1388 20.9461C86.1207 20.9481 86.1025 20.9527 86.0844 20.9573C86.0602 20.9634 86.036 20.9696 86.0118 20.9696C85.9365 21.1014 85.7388 21.1814 85.5882 21.0496C85.5459 21.0543 85.4988 21.059 85.4565 21.059C85.3859 21.1908 85.1459 21.1955 85.0282 20.979C84.9743 20.979 84.9246 20.9608 84.8752 20.9427C84.8342 20.9276 84.7933 20.9127 84.7506 20.9084C84.6612 20.9884 84.5388 20.9931 84.44 20.9461C84.3788 20.9131 84.3365 20.8425 84.3177 20.7719H84.2894C84.2377 20.5649 84.1012 20.4237 83.833 20.5414C83.7597 20.5414 83.7201 20.4897 83.6834 20.4418C83.6706 20.4251 83.6581 20.4089 83.6447 20.3955C83.6353 20.2637 83.5694 20.1131 83.4424 20.0519C83.3859 20.0237 83.3153 20.0237 83.2541 20.0519C83.2328 20.0484 83.2249 20.026 83.2182 20.0072C83.2161 20.0011 83.2141 19.9954 83.2118 19.9908C83.1946 19.9622 83.169 19.9413 83.1436 19.9206C83.1063 19.8903 83.0696 19.8604 83.0612 19.8072C83.0941 19.6237 82.9859 19.3884 82.84 19.4402C82.8118 19.5437 82.6612 19.4214 82.7224 19.1484C82.6534 19.0885 82.657 18.9846 82.6602 18.8928C82.6621 18.8404 82.6637 18.792 82.6518 18.7578C82.6334 18.6982 82.7045 18.4462 82.7561 18.2636L82.7593 18.2523C82.7317 18.3512 82.7273 18.5041 82.7553 18.5508L82.7835 18.5414C82.8212 18.4567 82.84 18.3155 82.8024 18.2167L82.7788 18.1978C82.953 17.5908 84.2047 16.1414 86.0447 16.659Z" fill="white"/>
<path d="M82.6112 18.8532C82.5944 18.9389 82.5777 19.0237 82.5859 19.1014C82.6518 19.0214 82.6659 18.9037 82.6188 18.8143C82.6163 18.8273 82.6138 18.8403 82.6112 18.8532Z" fill="white"/>
<path d="M82.68 19.4166L82.6565 19.4637C82.5812 19.4213 82.5812 19.3272 82.5859 19.2519C82.6282 19.299 82.6612 19.3555 82.68 19.4166Z" fill="white"/>
<path d="M86.6227 21.2099C86.631 21.208 86.6392 21.206 86.6471 21.2049L86.6518 21.2002C86.6609 21.1947 86.6703 21.1893 86.6798 21.1838C86.7442 21.1464 86.8142 21.1058 86.8306 21.0402L86.7459 21.0825C86.735 21.0858 86.724 21.0891 86.7131 21.0924C86.6439 21.1133 86.5743 21.1343 86.5012 21.1343V21.1437C86.4968 21.1702 86.5213 21.1884 86.5399 21.2022L86.5435 21.2049C86.5686 21.2228 86.5964 21.2162 86.6227 21.2099Z" fill="white"/>
<path d="M84.1953 20.8472C84.1341 20.8849 84.0588 20.8943 83.9929 20.8567C83.9412 20.819 83.9082 20.7531 83.9035 20.6872C83.9265 20.6981 83.9522 20.7084 83.979 20.719C84.0565 20.7499 84.1428 20.7843 84.1953 20.8472Z" fill="white"/>
<path d="M83.88 21.6002C83.8047 21.5625 83.72 21.5061 83.6541 21.4543C83.7435 21.4825 83.8329 21.5249 83.88 21.6002Z" fill="white"/>
<path d="M87.4518 20.7955C87.4491 20.8004 87.4455 20.8057 87.4411 20.8112C87.4432 20.8059 87.4452 20.8007 87.4471 20.7955H87.4518Z" fill="white"/>
<path d="M87.4411 20.8112C87.4018 20.9106 87.3289 21.0176 87.2306 21.0355C87.16 21.0496 87.1553 20.9978 87.2118 20.8849C87.2377 20.9628 87.391 20.8736 87.4411 20.8112Z" fill="white"/>
<path d="M87.3247 21.1014C87.3388 21.0214 87.4188 20.9225 87.4612 20.9225C87.4565 20.9508 87.3624 21.0684 87.3247 21.1014Z" fill="white"/>
<path d="M87.1929 21.092C87.0659 21.1249 87 21.2708 87.0047 21.3273C87.0518 21.3084 87.0988 21.2284 87.1082 21.2096C87.1176 21.1908 87.1506 21.1767 87.1835 21.172C87.2353 21.1673 87.2494 21.0778 87.1929 21.092Z" fill="white"/>
<path d="M87.0329 21.1155C86.9953 21.2849 86.8165 21.3696 86.7506 21.3037H86.7553C86.7129 21.252 86.76 21.2237 86.8071 21.252C86.8588 21.2802 87 21.1673 87.0329 21.1155Z" fill="white"/>
<path d="M86.8165 21.412C86.7318 21.4496 86.633 21.5296 86.6283 21.6426C86.6325 21.6383 86.6396 21.6305 86.6487 21.6204C86.6903 21.5743 86.774 21.4817 86.8165 21.4778C86.8683 21.4778 86.8871 21.379 86.8165 21.412Z" fill="white"/>
<path d="M86.1671 21.8214C86.2 21.6614 86.4824 21.5861 86.5718 21.6708C86.4118 21.6708 86.2565 21.7272 86.1671 21.8214Z" fill="white"/>
<path d="M86.1294 21.426C86.2094 21.5625 86.4729 21.4496 86.4635 21.3131C86.4306 21.346 86.3176 21.459 86.1294 21.426Z" fill="white"/>
<path d="M85.8471 21.1767C85.8659 21.4167 86.2047 21.3508 86.2518 21.1531C86.2235 21.2425 85.8612 21.2614 85.8471 21.1767Z" fill="white"/>
<path d="M85.7247 21.5249C85.6635 21.5672 85.6494 21.5861 85.6776 21.6143C85.72 21.6519 85.9129 21.6284 85.96 21.5014C85.9318 21.5531 85.7106 21.5813 85.7247 21.5249Z" fill="white"/>
<path d="M85.64 21.9625C85.7012 21.8025 86.0494 21.7743 86.12 21.8684C85.96 21.8449 85.7436 21.8778 85.64 21.9625Z" fill="white"/>
<path d="M85.0424 21.939C85.1318 21.8214 85.4941 21.8214 85.5506 21.9249C85.3953 21.8779 85.1647 21.8967 85.0424 21.939Z" fill="white"/>
<path d="M85.3624 21.3413C85.3153 21.2943 85.3577 21.2425 85.4141 21.2943C85.4612 21.3366 85.6871 21.3319 85.7153 21.2896C85.6259 21.4872 85.3953 21.3743 85.3624 21.3413Z" fill="white"/>
<path d="M85.3953 21.6049C85.4329 21.6849 85.287 21.859 85.1223 21.6802L85.1319 21.6828C85.1936 21.7003 85.3597 21.7473 85.3953 21.6049Z" fill="white"/>
<path d="M84.8588 21.4779C84.9953 21.699 85.2259 21.619 85.2494 21.4779C85.2212 21.5202 85.0235 21.6143 84.8588 21.4779Z" fill="white"/>
<path d="M84.5906 21.0967C84.6612 21.4214 85.0376 21.3367 85.0423 21.1767C85.0141 21.219 84.7459 21.3319 84.5906 21.0967Z" fill="white"/>
<path d="M84.7083 21.4496C84.7083 21.6331 84.3412 21.5767 84.4071 21.3602C84.4259 21.4308 84.6141 21.5673 84.7083 21.4496Z" fill="white"/>
<path d="M84.0871 20.9884C84.1577 21.3131 84.4635 21.2943 84.4965 21.1437C84.4683 21.1861 84.2424 21.2284 84.0871 20.9884Z" fill="white"/>
<path d="M84.9153 21.6472C84.9059 21.779 84.6565 21.8214 84.6518 21.6237C84.6847 21.6802 84.8118 21.7272 84.9153 21.6472Z" fill="white"/>
<path d="M84.3177 21.4073C84.4306 21.6426 83.9694 21.5155 84.0353 21.3037C84.0588 21.4167 84.3459 21.5532 84.3177 21.4073Z" fill="white"/>
<path d="M84.0494 21.1108C84.0824 21.346 83.6918 21.2378 83.7577 21.0213C83.7765 21.1155 83.9553 21.2284 84.0494 21.1108Z" fill="white"/>
<path d="M83.4941 21.3366C83.4282 21.2802 83.3576 21.2096 83.3059 21.1437C83.3859 21.1908 83.4659 21.2519 83.4941 21.3366Z" fill="white"/>
<path d="M83.1609 20.9264C83.1727 20.9439 83.1841 20.9607 83.1977 20.9743C83.1788 20.8896 83.1177 20.8143 83.0282 20.7673C83.0369 20.7931 83.0577 20.8119 83.0791 20.8312C83.0927 20.8435 83.1066 20.8561 83.1177 20.8708C83.1348 20.8879 83.1481 20.9075 83.1609 20.9264Z" fill="white"/>
<path d="M83.2447 20.8943C83.2588 20.8237 83.24 20.7296 83.1365 20.6308C83.24 20.659 83.3247 20.8284 83.2447 20.8943Z" fill="white"/>
<path d="M83.4518 20.979C83.5318 21.1202 83.6965 21.1531 83.6494 21.0496C83.6353 21.0637 83.5365 21.059 83.4518 20.979Z" fill="white"/>
<path d="M83.48 21.059C83.5365 21.1155 83.5835 21.2332 83.5553 21.2943C83.5412 21.2614 83.4518 20.9884 83.48 21.059Z" fill="white"/>
<path d="M83.1882 20.5037C83.2023 20.6778 83.3859 20.7578 83.4188 20.6355C83.3529 20.6637 83.2541 20.5978 83.1882 20.5037Z" fill="white"/>
<path d="M83.5224 20.6731C83.4612 20.7437 83.7389 21.0496 83.8236 20.9037L83.8105 20.8991C83.7384 20.874 83.5931 20.8233 83.5224 20.6731Z" fill="white"/>
<path d="M83.5882 20.419C83.5318 20.5225 83.2871 20.4519 83.2918 20.1602C83.3482 20.259 83.4659 20.3814 83.5882 20.419Z" fill="white"/>
<path d="M82.9953 20.7249C83.0282 20.6167 82.9012 20.3908 82.8259 20.3531C82.8331 20.3689 82.8469 20.3937 82.8637 20.4237C82.912 20.5104 82.9848 20.641 82.9953 20.7249Z" fill="white"/>
<path d="M83.0471 20.4896C83.0988 20.4284 83.0565 20.3013 83.0094 20.259C83.0282 20.3202 83.0471 20.4378 83.0471 20.4896Z" fill="white"/>
<path d="M83.0235 20.0096C82.92 20.2026 83.1882 20.3814 83.2259 20.2261C83.1506 20.2779 83.0471 20.1696 83.0235 20.0096Z" fill="white"/>
<path d="M82.7176 19.939C82.7459 20.0096 82.7741 20.1837 82.7835 20.2684C82.8071 20.212 82.8165 20.0331 82.7176 19.939Z" fill="white"/>
<path d="M82.8494 19.5861C82.8259 19.8731 82.9906 19.9767 83.0423 19.8261C82.9812 19.812 82.8824 19.6708 82.8494 19.5861Z" fill="white"/>
<path d="M82.8023 19.8308C82.8024 19.8293 82.8024 19.8277 82.8024 19.8261L82.8023 19.8308C82.8023 19.8308 82.8024 19.8308 82.8023 19.8308Z" fill="white"/>
<path d="M82.68 19.6473C82.6707 19.8661 82.7996 19.9744 82.8023 19.8308C82.7451 19.8396 82.7332 19.7906 82.7242 19.7534C82.7236 19.7509 82.723 19.7485 82.7224 19.7461C82.7206 19.739 82.7192 19.7322 82.7178 19.7257C82.7118 19.6976 82.7068 19.674 82.68 19.6473Z" fill="white"/>
<path d="M85.3808 16.6202C85.3494 16.6276 85.3079 16.6375 85.2635 16.6401C85.2279 16.644 85.1924 16.6438 85.1621 16.6437C85.1201 16.6435 85.0881 16.6433 85.0799 16.6542C85.1458 16.6871 85.3999 16.6824 85.4329 16.6119C85.4245 16.6098 85.4059 16.6142 85.3808 16.6202Z" fill="#DCDDDE"/>
<path d="M82.8305 18.8754C82.8823 18.7719 82.8493 18.6354 82.7787 18.6213H82.774L82.7929 18.6919C82.807 18.706 82.8258 18.7436 82.7929 18.8048V18.8754H82.8305Z" fill="#DCDDDE"/>
<path d="M84.8448 16.6592C84.8855 16.6442 84.9176 16.6324 84.9293 16.6354C84.8634 16.7154 84.6517 16.7672 84.5999 16.7295C84.6024 16.7245 84.626 16.7195 84.6596 16.7125C84.6894 16.7062 84.727 16.6982 84.7646 16.6872C84.7928 16.6783 84.8204 16.6682 84.8448 16.6592Z" fill="#DCDDDE"/>
<path d="M84.2423 16.866C84.2658 16.913 84.4023 16.8425 84.4446 16.7907H84.4493V16.7483C84.4188 16.7598 84.3968 16.779 84.3741 16.7987C84.341 16.8276 84.3066 16.8576 84.2423 16.866Z" fill="#DCDDDE"/>
<path d="M84.0776 16.9037C84.0776 16.9837 83.9411 17.0589 83.9129 17.0307C83.9625 17.0032 83.9766 16.9805 83.993 16.9541C84.0046 16.9354 84.0173 16.9149 84.0446 16.8895L84.0776 16.9037Z" fill="#DCDDDE"/>
<path d="M83.6023 17.2095C83.6023 17.2095 83.7199 17.1201 83.7435 17.0495C83.7905 17.0872 83.6164 17.2613 83.6023 17.2095Z" fill="#DCDDDE"/>
<path d="M83.3011 17.5437C83.3623 17.506 83.4376 17.3884 83.447 17.3037C83.4799 17.3789 83.414 17.5437 83.3011 17.5437Z" fill="#DCDDDE"/>
<path d="M87.8929 18.9993C87.8841 18.9563 87.8732 18.9024 87.8847 18.8519C87.8872 18.8406 87.8913 18.8297 87.8953 18.8193C87.9063 18.7905 87.9158 18.7656 87.8847 18.7483C87.7717 18.7813 87.8235 19.026 87.8847 19.0825C87.9088 19.0776 87.902 19.0445 87.8929 18.9993Z" fill="#DCDDDE"/>
<path d="M87.8235 19.4589C87.8214 19.4737 87.8193 19.4828 87.8163 19.4955C87.8127 19.5112 87.8077 19.5324 87.7999 19.5766C87.767 19.5201 87.8047 19.2472 87.8988 19.266C87.9202 19.3179 87.89 19.3599 87.8623 19.3984C87.8474 19.4193 87.8331 19.4391 87.8282 19.4589H87.8235Z" fill="#DCDDDE"/>
<path d="M82.9576 18.1366C82.9999 18.1272 83.1035 17.9248 83.0893 17.8401V17.8448C83.0886 17.8418 83.088 17.8386 83.0873 17.8354C83.084 17.8184 83.0809 17.8023 83.0611 17.826C83.033 17.8611 83.0224 17.9159 83.0113 17.9732C83.0001 18.0311 82.9883 18.0916 82.9576 18.1366Z" fill="#DCDDDE"/>
<path d="M87.6682 20.0283C87.6258 20.0142 87.7058 19.6942 87.8094 19.6942C87.8362 19.7773 87.7897 19.8329 87.7431 19.8888C87.7077 19.9311 87.6722 19.9736 87.6682 20.0283Z" fill="#DCDDDE"/>
<path d="M87.4935 20.3792C87.53 20.3787 87.5653 20.3781 87.5788 20.3295C87.5505 20.2166 87.3482 20.3624 87.3246 20.4801C87.3573 20.4834 87.3741 20.4594 87.3923 20.4335C87.4004 20.422 87.4087 20.4102 87.4188 20.4001C87.4388 20.3801 87.4665 20.3796 87.4935 20.3792Z" fill="#DCDDDE"/>
<path d="M82.887 19.3695C82.8824 19.3511 82.8784 19.3332 82.8746 19.3158C82.8547 19.2265 82.838 19.151 82.7552 19.0919C82.807 18.9131 82.9858 19.1342 82.887 19.3695Z" fill="#DCDDDE"/>
<path d="M84.0399 17.0354L84.0633 17.0635C84.0586 17.1553 83.9124 17.2234 83.8846 17.2095C83.941 17.1948 83.9565 17.1532 83.9711 17.1141C83.9845 17.0782 83.9971 17.0444 84.0399 17.0354Z" fill="#DCDDDE"/>
<path d="M83.6729 17.2848C83.6823 17.3789 83.5693 17.4966 83.4752 17.4636C83.478 17.4538 83.4933 17.4432 83.5135 17.4292C83.5613 17.3959 83.6366 17.3436 83.6399 17.2378L83.6681 17.2848H83.6729Z" fill="#DCDDDE"/>
<path d="M83.2023 17.8778C83.3435 17.8119 83.3246 17.6707 83.3058 17.5813C83.3952 17.6519 83.3999 17.8966 83.2023 17.8778Z" fill="#DCDDDE"/>
<path d="M87.7105 19.506C87.6117 19.4872 87.5458 19.6942 87.5411 19.7648C87.527 19.6801 87.5223 19.5389 87.6353 19.4354C87.6729 19.4025 87.7341 19.4307 87.7105 19.506Z" fill="#DCDDDE"/>
<path d="M82.967 18.5036C83.0282 18.5083 83.0893 18.273 83.0658 18.2071C83.0329 18.1271 82.967 18.1695 82.9811 18.2166C82.9811 18.2166 83.0376 18.3483 82.967 18.5036Z" fill="#DCDDDE"/>
<path d="M87.6023 19.9107C87.5905 19.9556 87.5549 19.9672 87.5171 19.9797C87.4796 19.992 87.4398 20.005 87.4187 20.0518C87.4046 20.0801 87.3905 20.1083 87.3717 20.1271C87.3717 20.0048 87.5505 19.746 87.607 19.9107H87.6023Z" fill="#DCDDDE"/>
<path d="M83.0423 18.9083C83.0705 18.8707 83.1364 18.6966 83.0705 18.5883V18.5836C83.0282 18.5177 82.9105 18.5789 83.0046 18.6636C83.065 18.7321 83.0565 18.7971 83.0469 18.8705C83.0453 18.8828 83.0436 18.8954 83.0423 18.9083Z" fill="#DCDDDE"/>
<path d="M87.32 20.2213C87.3165 20.2523 87.3029 20.2505 87.2793 20.2473C87.2706 20.2461 87.2607 20.2448 87.2494 20.2448C87.1788 20.2448 87.0517 20.3954 87.0517 20.3954C87.0611 20.2636 87.2494 20.0048 87.32 20.2213Z" fill="#DCDDDE"/>
<path d="M83.1478 19.2669C83.1539 19.3095 83.1588 19.3437 83.1834 19.3507C83.287 19.0684 83.0282 18.8801 83.0093 19.0684C83.1241 19.1007 83.1377 19.1957 83.1478 19.2669Z" fill="#DCDDDE"/>
<path d="M86.9811 20.4754C86.9749 20.5005 86.956 20.5005 86.9372 20.5005C86.9278 20.5005 86.9184 20.5005 86.9105 20.5036C86.8564 20.5236 86.8092 20.5607 86.7626 20.5974C86.7322 20.6213 86.7021 20.645 86.6705 20.6636C86.6517 20.5789 86.92 20.306 86.9811 20.4754Z" fill="#DCDDDE"/>
<path d="M83.3703 19.8074L83.3717 19.8071L83.367 19.8118C83.3681 19.8104 83.3692 19.809 83.3703 19.8074Z" fill="#DCDDDE"/>
<path d="M83.1364 19.5295C83.2848 19.3764 83.4424 19.7034 83.3703 19.8074C83.3637 19.8086 83.3353 19.8108 83.3105 19.7695L83.3084 19.7653C83.2835 19.7154 83.2236 19.5951 83.1458 19.586C83.1035 19.5813 83.1129 19.5483 83.1364 19.5295Z" fill="#DCDDDE"/>
<path d="M86.5105 20.7766L86.5066 20.7765C86.614 20.7667 86.6045 20.6824 86.5247 20.6542C86.4353 20.626 86.2705 20.6777 86.2188 20.8283C86.3046 20.7499 86.4023 20.7633 86.4672 20.7722C86.4823 20.7743 86.4956 20.7761 86.5066 20.7765L86.5058 20.7766H86.5105Z" fill="#DCDDDE"/>
<path d="M83.9364 20.3154C84.0117 20.4236 84.0446 20.3577 84.0446 20.3577C84.054 20.146 83.814 19.9295 83.6635 20.1695C83.8286 20.1652 83.8974 20.2612 83.9292 20.3055C83.9319 20.3092 83.9342 20.3125 83.9364 20.3154Z" fill="#DCDDDE"/>
<path d="M86.0023 20.8001C86.0211 20.8283 85.9976 20.9554 85.8847 20.9036C85.7764 20.8472 85.6682 20.8425 85.5647 20.8942C85.7105 20.6401 85.9411 20.7201 86.0023 20.8048V20.8001Z" fill="#DCDDDE"/>
<path d="M85.3952 20.9601C85.4423 20.9884 85.5176 20.9884 85.5035 20.9225C85.4517 20.6778 85.0658 20.7389 85.047 20.9131C85.0423 20.9272 85.0423 20.9507 85.0705 20.9366C85.1693 20.8895 85.3435 20.9272 85.3952 20.9601Z" fill="#DCDDDE"/>
<path d="M84.8023 20.8189C84.7882 20.8895 84.7035 20.8425 84.6611 20.8095C84.6188 20.7766 84.4211 20.706 84.3505 20.7107L84.3364 20.6825C84.5435 20.4142 84.8305 20.7013 84.8023 20.8189Z" fill="#DCDDDE"/>
<path d="M85.7576 16.6918C85.8195 16.7059 85.8713 16.7082 85.9069 16.7098C85.931 16.7108 85.9477 16.7116 85.9552 16.7154C85.9035 16.7718 85.6023 16.7013 85.5599 16.6354C85.5699 16.6304 85.5902 16.6372 85.6252 16.6489C85.6566 16.6594 85.6997 16.6738 85.7576 16.6871V16.6918Z" fill="#DCDDDE"/>
<path d="M86.4487 16.8969C86.4109 16.8886 86.3544 16.876 86.2941 16.8519C86.2396 16.8292 86.1961 16.8043 86.1635 16.7857C86.1285 16.7657 86.1062 16.7529 86.0964 16.7578C86.1247 16.8283 86.4305 16.9554 86.4917 16.9083C86.485 16.905 86.4697 16.9016 86.4487 16.8969Z" fill="#DCDDDE"/>
<path d="M86.8446 17.1672C86.8993 17.2036 86.9521 17.2264 86.9877 17.2417C87.0072 17.2501 87.0215 17.2563 87.0282 17.2613C86.9623 17.2989 86.6846 17.1107 86.6705 17.0354C86.6828 17.0354 86.7027 17.052 86.733 17.0773C86.7608 17.1005 86.7973 17.1309 86.8446 17.1624V17.1672Z" fill="#DCDDDE"/>
<path d="M87.389 17.6398C87.3609 17.6155 87.3232 17.5829 87.287 17.5389L87.2917 17.5436C87.2538 17.4968 87.2276 17.4543 87.2079 17.4224C87.186 17.387 87.1723 17.3648 87.1599 17.3648C87.1505 17.4401 87.3576 17.6989 87.4329 17.6848C87.4286 17.6742 87.412 17.6598 87.389 17.6398Z" fill="#DCDDDE"/>
<path d="M87.7055 18.1977C87.7211 18.2181 87.7321 18.2325 87.734 18.2401C87.6587 18.2401 87.5034 18.0001 87.5411 17.8872C87.553 17.8919 87.5589 17.9099 87.5691 17.9412C87.5791 17.9717 87.5932 18.0149 87.6211 18.0707C87.6492 18.1241 87.6823 18.1675 87.7055 18.1977Z" fill="#DCDDDE"/>
<path d="M87.8481 18.626C87.8323 18.5965 87.8094 18.554 87.7952 18.4942C87.7815 18.4373 87.7767 18.3936 87.7732 18.362C87.7695 18.3284 87.7673 18.3086 87.7576 18.3013C87.6917 18.4001 87.7905 18.6495 87.8658 18.6684C87.8658 18.659 87.8584 18.6453 87.8481 18.626Z" fill="#DCDDDE"/>
<path fill-rule="evenodd" clip-rule="evenodd" d="M88.0639 19.5597C88.0762 19.4526 88.0823 19.3451 88.0823 19.2378C88.0823 18.339 87.6493 17.459 86.8541 16.9225C86.3788 16.6025 85.8423 16.4519 85.3105 16.4519C84.4082 16.4519 83.5199 16.8884 82.9739 17.7005L82.9717 17.699C82.647 18.1837 82.4917 18.7296 82.4917 19.2754V19.2801C82.4917 19.4358 82.5048 19.5899 82.5303 19.7411C82.6403 20.4004 82.9839 21.0176 83.5374 21.4574C83.8022 21.6696 84.1104 21.8368 84.4541 21.9436C84.7317 22.0283 85.0093 22.0707 85.287 22.0707C86.4776 22.0707 87.5788 21.3036 87.9505 20.1083C88.0094 19.9255 88.0459 19.7426 88.0639 19.5597ZM83.227 17.542C83.7346 16.9392 84.4904 16.5836 85.287 16.5836C85.5505 16.5836 85.8235 16.6213 86.087 16.706C87.127 17.0286 87.8301 17.9256 87.9578 18.9411C87.9686 19.0394 87.9741 19.1385 87.9741 19.2378C87.9741 19.7554 87.8235 20.2825 87.5129 20.7484C86.9905 21.5296 86.1341 21.9531 85.2635 21.9531C84.7505 21.9531 84.2376 21.8072 83.7811 21.5013C83.0141 20.9884 82.5999 20.1413 82.5999 19.2754C82.5999 18.7531 82.7505 18.2307 83.0658 17.7601L83.0647 17.7595C83.1157 17.6836 83.1699 17.611 83.227 17.542Z" fill="#231F20"/>
<path d="M89.9599 15.7131C89.8705 13.6189 88.1011 11.9954 86.007 12.0848C83.9129 12.1742 82.2894 13.9436 82.3788 16.0378C82.4682 18.1319 84.2376 19.7554 86.3317 19.666C88.4258 19.5766 90.0494 17.8072 89.9599 15.7131Z" fill="white"/>
<path d="M85.2729 17.6517C85.2729 18.2634 85.1317 18.8611 84.8635 19.4023H84.8587L84.5952 19.2705C84.8446 18.7717 84.9764 18.2164 84.9764 17.6517C84.9764 17.1717 84.8823 16.687 84.6799 16.2258L84.9482 16.1082C85.1693 16.607 85.2729 17.134 85.2729 17.6517Z" fill="#C7C8CA"/>
<path d="M88.0869 16.1881C88.4163 16.7811 88.9105 17.2469 89.494 17.5434L89.3622 17.8022C88.7316 17.4822 88.1952 16.974 87.8328 16.3293L88.0869 16.1881Z" fill="#C7C8CA"/>
<path d="M84.6187 16.7577L84.981 16.7247L85.5175 16.4094C85.5881 16.3671 85.6116 16.2777 85.5693 16.2118C85.5269 16.1412 85.4375 16.1177 85.3716 16.16L84.8916 16.4424L84.5952 16.4659C84.5152 16.4706 84.454 16.5412 84.4634 16.6259C84.4728 16.7106 84.5434 16.7671 84.6234 16.7577H84.6187Z" fill="#F8972A"/>
<path d="M88.0964 16.3718L88.3411 16.1929H88.3363C88.4069 16.1459 88.4964 16.16 88.5434 16.2259C88.5905 16.2918 88.5764 16.3812 88.5105 16.4282L88.214 16.6447L87.6116 16.7529C87.5316 16.7671 87.4564 16.7153 87.4422 16.6353C87.4281 16.5553 87.4799 16.48 87.5599 16.4659L88.0964 16.3718Z" fill="#F8972A"/>
<path d="M88.4022 16.7341L88.6187 16.5223L88.614 16.527C88.6705 16.4706 88.7646 16.4706 88.8211 16.527C88.8775 16.5835 88.8775 16.6776 88.8211 16.7341L88.5575 16.9929L87.9787 17.1953C87.9034 17.2235 87.8234 17.1811 87.7952 17.1059C87.7669 17.0259 87.8093 16.9459 87.8846 16.9176L88.4022 16.7341Z" fill="#F8972A"/>
<path d="M88.9952 16.9082L88.7928 17.1341L88.2846 17.3506C88.2093 17.3835 88.1764 17.4682 88.2046 17.5435C88.2375 17.6188 88.3222 17.6518 88.3975 17.6235L88.9669 17.3835L89.2116 17.1059C89.2634 17.0447 89.2587 16.9553 89.1975 16.8988C89.1364 16.8471 89.0469 16.8518 88.9905 16.9082H88.9952Z" fill="#F8972A"/>
<path d="M89.1975 17.4823L89.3575 17.2235V17.2188C89.3999 17.1529 89.4893 17.1294 89.5599 17.1717C89.6257 17.2141 89.6493 17.3035 89.6069 17.3741L89.414 17.6894L88.8963 18.0282C88.8304 18.0706 88.7363 18.0517 88.694 17.9859C88.6516 17.92 88.6704 17.8259 88.7363 17.7835L89.1975 17.4823Z" fill="#F8972A"/>
<path d="M84.7364 17.2894L84.7317 17.2847C84.6517 17.2847 84.5858 17.2188 84.5858 17.1388C84.5905 17.0588 84.6564 16.9976 84.7364 16.9976H85.0328L85.5364 16.7623C85.6069 16.7294 85.6964 16.7623 85.7293 16.8329C85.7622 16.9035 85.734 16.9929 85.6587 17.0259L85.0987 17.2894H84.7364Z" fill="#F8972A"/>
<path d="M84.7646 17.8024L85.0893 17.8494H85.1222L85.7105 17.6659C85.7857 17.6424 85.8281 17.5577 85.8046 17.4824C85.781 17.4071 85.6963 17.3647 85.621 17.3882L85.094 17.5577L84.8022 17.5153C84.7222 17.5059 84.6469 17.5577 84.6375 17.6377C84.6234 17.7177 84.6799 17.7929 84.7599 17.8024H84.7646Z" fill="#F8972A"/>
<path d="M84.9999 18.367L84.6799 18.2964C84.6046 18.2776 84.5528 18.2023 84.5716 18.1223C84.5904 18.047 84.6704 17.9953 84.7457 18.0141L85.0328 18.08L85.5693 17.9529C85.6446 17.9341 85.7246 17.9811 85.7434 18.0611C85.7622 18.1364 85.7152 18.2164 85.6352 18.2353L85.0328 18.3764L84.9999 18.367Z" fill="#F8972A"/>
<path d="M84.6046 18.8047L84.9246 18.8847L84.9575 18.8941L85.5599 18.767C85.6399 18.7529 85.6916 18.6729 85.6728 18.5929C85.654 18.5129 85.5787 18.4612 85.4987 18.48L84.9622 18.5929L84.6752 18.5176C84.5999 18.4988 84.5199 18.5459 84.4963 18.6212C84.4775 18.7012 84.5246 18.7765 84.5999 18.8L84.6046 18.8047Z" fill="#F8972A"/>
<path d="M84.7552 19.3459L84.454 19.2141L84.4446 19.2188C84.3693 19.1859 84.3364 19.1012 84.3693 19.0259C84.4023 18.9506 84.487 18.9177 84.5623 18.9506L84.8352 19.0683L85.3858 19.04C85.4705 19.04 85.5411 19.1012 85.5411 19.1812C85.5458 19.2612 85.4846 19.3318 85.4046 19.3318L84.7881 19.36L84.7552 19.3459Z" fill="#F8972A"/>
<path d="M89.9599 15.713H90.0635C89.974 13.6141 88.2517 11.9812 86.1717 11.9812C86.1152 11.9812 86.0587 11.9812 86.0023 11.9812C83.9082 12.0706 82.2705 13.7977 82.2705 15.873C82.2705 15.9294 82.2705 15.9859 82.2705 16.0424C82.3599 18.1365 84.087 19.7741 86.1576 19.7741C86.214 19.7741 86.2705 19.7741 86.327 19.7741C88.4211 19.6847 90.0588 17.9577 90.0588 15.8824C90.0588 15.8259 90.0588 15.7694 90.0588 15.713H89.9552L89.8517 15.7224C89.8517 15.7741 89.8517 15.8306 89.8517 15.8824C89.8517 17.8494 88.3035 19.4824 86.3176 19.5671C86.2611 19.5671 86.2093 19.5671 86.1576 19.5671C84.1905 19.5671 82.5576 18.0141 82.4729 16.033C82.4729 15.9812 82.4729 15.9247 82.4729 15.873C82.4729 13.9059 84.0258 12.273 86.007 12.1883C86.0635 12.1883 86.1152 12.1883 86.167 12.1883C88.134 12.1883 89.767 13.7412 89.8517 15.7224H89.9552L89.9599 15.713Z" fill="#231F20"/>
<path d="M90.6894 11.9578C90.5812 9.44489 88.4588 7.49665 85.9459 7.60489C83.4329 7.71312 81.4847 9.83547 81.5929 12.3484C81.7012 14.8614 83.8235 16.8096 86.3364 16.7014C88.8494 16.5931 90.7976 14.4708 90.6894 11.9578Z" fill="white"/>
<path fill-rule="evenodd" clip-rule="evenodd" d="M90.7647 11.9719V12.1649C90.7647 14.6449 88.8118 16.706 86.3082 16.8143H86.1059C83.6306 16.8143 81.5694 14.8566 81.4612 12.3578V12.1554C81.4612 9.68015 83.4188 7.61898 85.9176 7.51074H86.12C88.5969 7.51074 90.6513 9.46348 90.7643 11.9625L90.7647 11.9719ZM90.4558 11.195C90.0113 9.18863 88.2231 7.7131 86.1153 7.7131H85.9224C83.5318 7.81662 81.6635 9.78368 81.6635 12.1554V12.3484C81.6974 13.1307 81.9309 13.8571 82.3128 14.4804L82.6283 13.4543L82.6573 13.4629L82.6545 13.4546L82.6377 13.4496L82.6447 13.426L81.8941 11.2237L82.0871 11.1578L82.8355 13.3537L83.936 13.3426L84.7933 12.8192L85.0283 10.9131L86.9906 10.5507L87.8126 12.3497L89.0662 12.4877L89.7403 11.1233L88.7882 9.45429L88.967 9.35547L89.9307 11.0409L90.4558 11.195ZM83.5452 15.7951C84.2715 16.3077 85.1562 16.6072 86.1059 16.6072H86.2454L85.7764 15.8308L85.7777 15.83L85.7747 15.825L84.1565 15.304L83.5452 15.7951ZM88.5395 15.8892C89.3086 15.3868 89.9099 14.6539 90.2494 13.7926L90.229 13.8008L88.5884 15.7064L88.5395 15.8892ZM86.5353 13.7477L84.9345 13.0446L84.085 13.5616L84.2703 15.1229L85.8403 15.6328L86.8377 14.7727L86.5353 13.7477ZM88.5505 15.4383L89.9457 13.8177L89.0887 12.6951L87.8457 12.5583L86.7616 13.5622L87.0978 14.7016L88.5505 15.4383Z" fill="#231F20"/>
<path d="M84.7977 13.3932C87.8541 13.3932 90.3318 10.9155 90.3318 7.85907C90.3318 4.80266 87.8541 2.32495 84.7977 2.32495C81.7413 2.32495 79.2635 4.80266 79.2635 7.85907C79.2635 10.9155 81.7413 13.3932 84.7977 13.3932Z" fill="#F8972A"/>
<path fill-rule="evenodd" clip-rule="evenodd" d="M79.7186 10.2616C80.0177 10.922 80.4374 11.4998 80.9522 11.976C81.5691 12.5596 82.3285 13.0113 83.1976 13.2707L83.1985 13.2677C83.7285 13.4265 84.263 13.5013 84.7882 13.5013C87.1976 13.5013 89.4235 11.9295 90.1482 9.50131C90.3082 8.96955 90.3788 8.43308 90.3788 7.90602C90.3788 5.49661 88.807 3.27072 86.3788 2.55072C85.847 2.39072 85.3106 2.31543 84.7835 2.31543C82.3741 2.31543 80.1482 3.88719 79.4282 6.31543C79.2682 6.84719 79.1976 7.38367 79.1976 7.91072C79.1976 8.7332 79.3808 9.53428 79.7186 10.2616ZM82.3695 12.7308C82.6474 12.8696 82.9413 12.9862 83.2494 13.0778C83.7623 13.2331 84.28 13.3037 84.7882 13.3037C85.3753 13.3037 85.951 13.207 86.4948 13.0248L82.8353 2.87936C81.595 3.36158 80.5433 4.29679 79.9368 5.54622C79.9773 5.54081 80.021 5.53666 80.0729 5.53458V5.52953H80.2423C82.3176 5.52953 84.0447 7.16717 84.1341 9.26129V9.41659C84.1341 10.7499 83.3999 12.0132 82.3695 12.7308ZM80.843 11.5897C81.2292 11.9982 81.6824 12.3407 82.1889 12.6076C83.1983 11.9406 83.9271 10.7036 83.9271 9.41659V9.2707C83.9175 9.04676 83.8881 8.82829 83.8407 8.61691L79.9363 10.2573C80.0157 10.4261 80.1034 10.5891 80.1988 10.7458C80.3848 11.0466 80.6004 11.3295 80.843 11.5897ZM79.8528 10.0705C79.5893 9.44849 79.4345 8.75187 79.4094 7.99541V7.84482C79.4094 7.1115 79.5746 6.41389 79.8397 5.76504L79.8449 5.76421C79.9312 5.75047 79.9943 5.74041 80.0823 5.73659H80.2423C81.916 5.73659 83.3478 6.86079 83.7898 8.41645L79.8528 10.0705ZM83.024 2.80999L86.6883 12.9559C88.0942 12.4246 89.264 11.3135 89.8281 9.82223C89.7133 9.83847 89.5957 9.85061 89.4753 9.85426H89.3059C87.2306 9.85426 85.5035 8.21661 85.4141 6.12249V5.93896C85.4141 4.71778 85.9409 3.63366 86.8353 2.91955C86.6691 2.85156 86.4981 2.79118 86.3223 2.73896C85.8094 2.58366 85.2918 2.51308 84.7835 2.51308C84.1773 2.51308 83.5833 2.61611 83.024 2.80999ZM87.0366 3.03339C86.1478 3.70362 85.6164 4.7556 85.6164 5.94838V6.12249C85.6341 6.53581 85.7192 6.93049 85.8606 7.29632L89.6684 5.69703C89.136 4.52594 88.1878 3.5845 87.0366 3.03339ZM89.3011 9.65661C87.816 9.65661 86.5213 8.77137 85.9396 7.48494L89.7488 5.88321C89.9694 6.42313 90.1028 7.00823 90.1294 7.62367C90.1294 7.66367 90.1306 7.70249 90.1317 7.74132C90.1329 7.78014 90.1341 7.81896 90.1341 7.85896C90.1341 8.4733 90.0285 9.06562 89.8343 9.61893C89.7119 9.63696 89.5865 9.64852 89.4611 9.65661H89.3011Z" fill="#231F20"/>
<path fill-rule="evenodd" clip-rule="evenodd" d="M20.6659 40.9789H7.38586V7.78833H20.3929L25.5317 12.6024V36.1648L20.6659 40.9789ZM14.1106 14.3907V35.0824H17.3059V14.3907H14.1106Z" fill="white"/>
<path d="M35.4847 7.78833H27.9835V40.9742H35.4847V7.78833Z" fill="white"/>
<path d="M48.7129 20.5177H56.0306V12.6024L51.0753 7.78833H42.8917L37.9788 12.6024V36.1648L43.3435 40.9789H51.0753L56.0306 36.1648V26.8142H48.7129V34.7295H45.4847V14.0377H48.7129V20.5177Z" fill="white"/>
<path d="M65.8988 21.953H65.9882L70.9012 7.78833H78.5859L72.0823 23.2942L79.5882 40.9789H71.447L65.9882 26.8142H65.8988V40.9789H58.3976V7.78833H65.8988V21.953Z" fill="white"/>
<path d="M109.32 12.6024L104.045 7.78833H96.1294L91.2212 12.6024V22.5554L96.4494 27.3695L101.814 27.7883V34.7295H98.7223V30.3342H91.2212V36.1648L96.087 40.9789H104.407L109.32 36.1648V26.0754L104.181 21.2613L98.7223 20.7954V14.0377H101.814V18.4801H109.32V12.6024Z" fill="white"/>
<path fill-rule="evenodd" clip-rule="evenodd" d="M108.398 40.1413H108.209V40.593H108.054V39.553H108.449C108.694 39.553 108.816 39.6424 108.816 39.8495C108.816 40.0377 108.699 40.1177 108.548 40.1365L108.845 40.593H108.671L108.398 40.1413ZM108.214 39.6895V40.0095H108.402C108.539 40.0095 108.656 40.0001 108.656 39.8401C108.656 39.713 108.539 39.6895 108.431 39.6895H108.214Z" fill="white"/>
<path fill-rule="evenodd" clip-rule="evenodd" d="M109.315 40.0754C109.315 40.5977 108.896 40.9789 108.402 40.9789C107.908 40.9789 107.485 40.593 107.485 40.0754C107.485 39.5577 107.908 39.1765 108.402 39.1765C108.896 39.1765 109.315 39.553 109.315 40.0754ZM108.402 39.3224C107.993 39.3224 107.668 39.6424 107.668 40.0707C107.668 40.5036 107.998 40.8236 108.402 40.8236C108.807 40.8236 109.132 40.4942 109.132 40.0707C109.132 39.6471 108.812 39.3224 108.402 39.3224Z" fill="white"/>
</svg>
