<svg version="1.2" xmlns="http://www.w3.org/2000/svg" viewBox="0 0 1275 1498" height="25">
	<title>ultanbb-svg</title>
	<style>
		.s0 { fill: #f47d39 } 
	</style>
	<g id="Layer">
		<g id="Layer">
			<g id="Layer">
				<path id="Layer" class="s0" d="m292.7 163.4c-6.8 162.6-6.8 368.4-6.8 553 0 341.8 4.5 418.5 68.3 502.8 63.8 83.6 183.8 130.7 337.9 130.7 179.2 0 320.4-89.7 369.8-221.1 17.4-47.1 28.8-113.1 28.8-289.4 0-279.5-2.3-559.7-19.7-838.5 31.1 4.6 170.1 4.6 203.5 0l-7.6 101.8c-10.7 184.5-17.5 626.6-22 843.1-4.6 253.7-79 369.1-225.5 459.5-104.1 64.6-251.4 91.9-371.3 91.9-265 0-583.2-81.3-631.8-413.9-5.3-30.4-5.3-94.2-5.3-113.2v-584.1c0-109.4-4.5-276.5-10.6-385.9 50.9 6.9 253.6 6.9 298.4 0z"/>
			</g>
		</g>
	</g>
</svg>