<?xml version="1.0" encoding="UTF-8" standalone="no"?>
<!-- Created with Inkscape (http://www.inkscape.org/) -->

<svg
   width="207.272"
   height="206.30499"
   viewBox="0 0 54.840718 54.584863"
   version="1.1"
   id="svg2806"
   xmlns="http://www.w3.org/2000/svg"
   xmlns:svg="http://www.w3.org/2000/svg">
  <defs
     id="defs2803">
    <clipPath
       clipPathUnits="userSpaceOnUse"
       id="clipPath362">
      <path
         d="m 819.576,173.332 h 223.744 v 280 H 819.576 Z"
         id="path360" />
    </clipPath>
    <clipPath
       clipPathUnits="userSpaceOnUse"
       id="clipPath362-7">
      <path
         d="m 819.576,173.332 h 223.744 v 280 H 819.576 Z"
         id="path360-5" />
    </clipPath>
  </defs>
  <g
     id="layer1">
    <g
       id="g4138"
       transform="matrix(1.0038758,0,0,0.99919181,-81.764312,-45.255199)">
      <g
         id="g356"
         transform="matrix(0.35277777,0,0,-0.35277777,-207.67956,205.25734)">
        <g
           id="g358"
           clip-path="url(#clipPath362-7)">
          <g
             id="g361"
             transform="translate(-34.924501,0.11392561)">
            <g
               id="g436"
               transform="translate(889.5215,453.3317)">
              <path
                 d="m 0,0 c -19.34,0 -35.021,-15.68 -35.021,-35.015 v -84.813 c 0,-19.345 15.681,-35.026 35.021,-35.026 h 84.814 c 19.34,0 35.019,15.681 35.019,35.026 v 84.813 C 119.833,-15.68 104.154,0 84.814,0 Z"
                 style="fill:#0053e2;fill-opacity:1;fill-rule:nonzero;stroke:none"
                 id="path438" />
            </g>
            <g
               id="g440"
               transform="translate(953.4373,381.1357)">
              <path
                 d="m 0,0 c 2.456,0.506 24.183,10.461 26.122,11.58 4.428,2.556 5.945,8.218 3.388,12.646 -2.556,4.427 -8.217,5.944 -12.645,3.388 C 14.926,26.494 -4.559,12.655 -6.225,10.781 -8.134,8.634 -8.464,5.562 -7.052,3.116 -5.64,0.671 -2.814,-0.579 0,0"
                 style="fill:#ffc220;fill-opacity:1;fill-rule:nonzero;stroke:none"
                 id="path442" />
            </g>
            <g
               id="g444"
               transform="translate(979.5596,359.0937)">
              <path
                 d="m 0,0 c -1.94,1.12 -23.666,11.075 -26.122,11.58 -2.815,0.58 -5.64,-0.67 -7.052,-3.116 -1.412,-2.446 -1.082,-5.518 0.827,-7.665 1.666,-1.874 21.151,-15.713 23.09,-16.833 4.428,-2.556 10.089,-1.039 12.645,3.388 C 5.945,-8.218 4.428,-2.556 0,0"
                 style="fill:#ffc220;fill-opacity:1;fill-rule:nonzero;stroke:none"
                 id="path446" />
            </g>
            <g
               id="g448"
               transform="translate(931.9278,359.2105)">
              <path
                 d="m 0,0 c -2.824,0 -5.32,-1.822 -6.225,-4.549 -0.79,-2.379 -3.032,-26.173 -3.032,-28.412 0,-5.113 4.145,-9.258 9.257,-9.258 5.112,0 9.257,4.145 9.257,9.258 0,2.239 -2.242,26.033 -3.032,28.412 C 5.32,-1.822 2.824,0 0,0"
                 style="fill:#ffc220;fill-opacity:1;fill-rule:nonzero;stroke:none"
                 id="path450" />
            </g>
            <g
               id="g452"
               transform="translate(910.4183,370.674)">
              <path
                 d="m 0,0 c -2.456,-0.506 -24.183,-10.461 -26.122,-11.58 -4.428,-2.556 -5.945,-8.218 -3.389,-12.646 2.557,-4.427 8.218,-5.944 12.646,-3.388 1.939,1.12 21.424,14.959 23.09,16.833 1.909,2.147 2.239,5.219 0.826,7.665 C 5.639,-0.671 2.814,0.579 0,0"
                 style="fill:#ffc220;fill-opacity:1;fill-rule:nonzero;stroke:none"
                 id="path454" />
            </g>
            <g
               id="g456"
               transform="translate(893.5531,408.7496)">
              <path
                 d="m 0,0 c -4.427,2.556 -10.089,1.039 -12.646,-3.388 -2.555,-4.428 -1.039,-10.089 3.389,-12.645 1.939,-1.121 23.667,-11.075 26.122,-11.581 2.814,-0.579 5.64,0.671 7.052,3.117 1.412,2.445 1.082,5.517 -0.827,7.665 C 21.424,-14.958 1.939,-1.12 0,0"
                 style="fill:#ffc220;fill-opacity:1;fill-rule:nonzero;stroke:none"
                 id="path458" />
            </g>
            <g
               id="g460"
               transform="translate(931.9278,434.8178)">
              <path
                 d="m 0,0 c -5.113,0 -9.257,-4.145 -9.257,-9.257 0,-2.239 2.242,-26.033 3.032,-28.413 0.906,-2.727 3.401,-4.549 6.225,-4.549 2.824,0 5.32,1.822 6.225,4.549 0.79,2.38 3.032,26.174 3.032,28.413 C 9.257,-4.145 5.112,0 0,0"
                 style="fill:#ffc220;fill-opacity:1;fill-rule:nonzero;stroke:none"
                 id="path462" />
            </g>
          </g>
        </g>
      </g>
    </g>
  </g>
</svg>
